v -48.97446 0.41810 42.96949
v -48.64030 2.35469 43.27498
v -50.55541 2.61079 43.74634
v -50.88957 0.67419 43.44084
v -51.30921 1.04756 41.53299
v -50.97505 2.98416 41.83848
v -49.05994 2.72806 41.36713
v -49.39410 0.79146 41.06164
v -50.88957 0.67419 43.44084
v -51.30921 1.04756 41.53299
v -49.39410 0.79146 41.06164
v -48.97446 0.41810 42.96949
v -48.64030 2.35469 43.27498
v -49.05994 2.72806 41.36713
v -50.97505 2.98416 41.83848
v -50.55541 2.61079 43.74634
v -50.55541 2.61079 43.74634
v -50.97505 2.98416 41.83848
v -51.30921 1.04756 41.53299
v -50.88957 0.67419 43.44084
v -48.97446 0.41810 42.96949
v -49.39410 0.79146 41.06164
v -49.05994 2.72806 41.36713
v -48.64030 2.35469 43.27498
v -49.37651 -0.59544 -48.81338
v -49.53932 0.57419 -49.23698
v -48.92601 1.02134 -48.23803
v -48.76320 -0.14830 -47.81444
v -49.84548 -0.07086 -47.18462
v -50.00829 1.09878 -47.60821
v -50.62160 0.65163 -48.60716
v -50.45879 -0.51800 -48.18357
v -48.76320 -0.14830 -47.81444
v -49.84548 -0.07086 -47.18462
v -50.45879 -0.51800 -48.18357
v -49.37651 -0.59544 -48.81338
v -49.53932 0.57419 -49.23698
v -50.62160 0.65163 -48.60716
v -50.00829 1.09878 -47.60821
v -48.92601 1.02134 -48.23803
v -48.92601 1.02134 -48.23803
v -50.00829 1.09878 -47.60821
v -49.84548 -0.07086 -47.18462
v -48.76320 -0.14830 -47.81444
v -49.37651 -0.59544 -48.81338
v -50.45879 -0.51800 -48.18357
v -50.62160 0.65163 -48.60716
v -49.53932 0.57419 -49.23698
v -59.62174 -0.55569 -8.72651
v -59.95361 0.61640 -9.10380
v -58.72245 0.93845 -9.18628
v -58.39057 -0.23363 -8.80898
v -58.41005 0.15208 -7.59361
v -58.74193 1.32417 -7.97091
v -59.97309 1.00211 -7.88843
v -59.64121 -0.16998 -7.51113
v -58.39057 -0.23363 -8.80898
v -58.41005 0.15208 -7.59361
v -59.64121 -0.16998 -7.51113
v -59.62174 -0.55569 -8.72651
v -59.95361 0.61640 -9.10380
v -59.97309 1.00211 -7.88843
v -58.74193 1.32417 -7.97091
v -58.72245 0.93845 -9.18628
v -58.72245 0.93845 -9.18628
v -58.74193 1.32417 -7.97091
v -58.41005 0.15208 -7.59361
v -58.39057 -0.23363 -8.80898
v -59.62174 -0.55569 -8.72651
v -59.64121 -0.16998 -7.51113
v -59.97309 1.00211 -7.88843
v -59.95361 0.61640 -9.10380
v 26.74251 1.62117 68.92710
v 26.99398 2.51116 69.16845
v 26.57510 2.84427 68.37653
v 26.32363 1.95428 68.13519
v 27.14512 1.85170 67.65751
v 27.39659 2.74168 67.89886
v 27.81547 2.40857 68.69077
v 27.56400 1.51859 68.44943
v 26.32363 1.95428 68.13519
v 27.14512 1.85170 67.65751
v 27.56400 1.51859 68.44943
v 26.74251 1.62117 68.92710
v 26.99398 2.51116 69.16845
v 27.81547 2.40857 68.69077
v 27.39659 2.74168 67.89886
v 26.57510 2.84427 68.37653
v 26.57510 2.84427 68.37653
v 27.39659 2.74168 67.89886
v 27.14512 1.85170 67.65751
v 26.32363 1.95428 68.13519
v 26.74251 1.62117 68.92710
v 27.56400 1.51859 68.44943
v 27.81547 2.40857 68.69077
v 26.99398 2.51116 69.16845
v 63.29544 0.38430 -6.61519
v 63.12055 1.53625 -5.96247
v 64.44327 1.71744 -5.92784
v 64.61816 0.56550 -6.58056
v 64.67685 -0.08551 -5.41593
v 64.50196 1.06644 -4.76321
v 63.17924 0.88524 -4.79784
v 63.35413 -0.26670 -5.45056
v 64.61816 0.56550 -6.58056
v 64.67685 -0.08551 -5.41593
v 63.35413 -0.26670 -5.45056
v 63.29544 0.38430 -6.61519
v 63.12055 1.53625 -5.96247
v 63.17924 0.88524 -4.79784
v 64.50196 1.06644 -4.76321
v 64.44327 1.71744 -5.92784
v 64.44327 1.71744 -5.92784
v 64.50196 1.06644 -4.76321
v 64.67685 -0.08551 -5.41593
v 64.61816 0.56550 -6.58056
v 63.29544 0.38430 -6.61519
v 63.35413 -0.26670 -5.45056
v 63.17924 0.88524 -4.79784
v 63.12055 1.53625 -5.96247
v 57.26168 -1.30731 -39.78508
v 56.55753 0.43264 -40.68487
v 58.45319 1.27882 -40.53209
v 59.15734 -0.46113 -39.63229
v 58.66385 0.30662 -37.76149
v 57.95970 2.04657 -38.66128
v 56.06404 1.20039 -38.81407
v 56.76819 -0.53956 -37.91428
v 59.15734 -0.46113 -39.63229
v 58.66385 0.30662 -37.76149
v 56.76819 -0.53956 -37.91428
v 57.26168 -1.30731 -39.78508
v 56.55753 0.43264 -40.68487
v 56.06404 1.20039 -38.81407
v 57.95970 2.04657 -38.66128
v 58.45319 1.27882 -40.53209
v 58.45319 1.27882 -40.53209
v 57.95970 2.04657 -38.66128
v 58.66385 0.30662 -37.76149
v 59.15734 -0.46113 -39.63229
v 57.26168 -1.30731 -39.78508
v 56.76819 -0.53956 -37.91428
v 56.06404 1.20039 -38.81407
v 56.55753 0.43264 -40.68487
v -54.66750 0.22434 20.85677
v -55.20321 1.36212 20.35958
v -54.58504 1.13689 19.17812
v -54.04934 -0.00089 19.67531
v -52.97249 0.69442 20.10619
v -53.50819 1.83219 19.60900
v -54.12636 2.05742 20.79046
v -53.59065 0.91964 21.28765
v -54.04934 -0.00089 19.67531
v -52.97249 0.69442 20.10619
v -53.59065 0.91964 21.28765
v -54.66750 0.22434 20.85677
v -55.20321 1.36212 20.35958
v -54.12636 2.05742 20.79046
v -53.50819 1.83219 19.60900
v -54.58504 1.13689 19.17812
v -54.58504 1.13689 19.17812
v -53.50819 1.83219 19.60900
v -52.97249 0.69442 20.10619
v -54.04934 -0.00089 19.67531
v -54.66750 0.22434 20.85677
v -53.59065 0.91964 21.28765
v -54.12636 2.05742 20.79046
v -55.20321 1.36212 20.35958
v -30.39052 2.04225 65.50417
v -30.11842 3.29323 65.81092
v -29.87133 2.93483 67.05333
v -30.14343 1.68385 66.74658
v -31.40755 1.88308 67.05545
v -31.13544 3.13405 67.36220
v -31.38253 3.49245 66.11980
v -31.65464 2.24147 65.81304
v -30.14343 1.68385 66.74658
v -31.40755 1.88308 67.05545
v -31.65464 2.24147 65.81304
v -30.39052 2.04225 65.50417
v -30.11842 3.29323 65.81092
v -31.38253 3.49245 66.11980
v -31.13544 3.13405 67.36220
v -29.87133 2.93483 67.05333
v -29.87133 2.93483 67.05333
v -31.13544 3.13405 67.36220
v -31.40755 1.88308 67.05545
v -30.14343 1.68385 66.74658
v -30.39052 2.04225 65.50417
v -31.65464 2.24147 65.81304
v -31.38253 3.49245 66.11980
v -30.11842 3.29323 65.81092
v 65.02621 0.18207 -29.04927
v 64.04372 2.10146 -29.27471
v 62.51773 1.17579 -30.50542
v 63.50022 -0.74360 -30.27999
v 64.68606 -0.34454 -32.05049
v 63.70357 1.57485 -32.27593
v 65.22956 2.50052 -31.04521
v 66.21205 0.58113 -30.81978
v 63.50022 -0.74360 -30.27999
v 64.68606 -0.34454 -32.05049
v 66.21205 0.58113 -30.81978
v 65.02621 0.18207 -29.04927
v 64.04372 2.10146 -29.27471
v 65.22956 2.50052 -31.04521
v 63.70357 1.57485 -32.27593
v 62.51773 1.17579 -30.50542
v 62.51773 1.17579 -30.50542
v 63.70357 1.57485 -32.27593
v 64.68606 -0.34454 -32.05049
v 63.50022 -0.74360 -30.27999
v 65.02621 0.18207 -29.04927
v 66.21205 0.58113 -30.81978
v 65.22956 2.50052 -31.04521
v 64.04372 2.10146 -29.27471
v 25.62125 0.49663 49.06756
v 25.59125 1.46886 48.60645
v 26.62215 1.36263 48.31541
v 26.65214 0.39040 48.77652
v 26.96051 0.84011 49.70464
v 26.93052 1.81234 49.24353
v 25.89962 1.91857 49.53457
v 25.92961 0.94635 49.99568
v 26.65214 0.39040 48.77652
v 26.96051 0.84011 49.70464
v 25.92961 0.94635 49.99568
v 25.62125 0.49663 49.06756
v 25.59125 1.46886 48.60645
v 25.89962 1.91857 49.53457
v 26.93052 1.81234 49.24353
v 26.62215 1.36263 48.31541
v 26.62215 1.36263 48.31541
v 26.93052 1.81234 49.24353
v 26.96051 0.84011 49.70464
v 26.65214 0.39040 48.77652
v 25.62125 0.49663 49.06756
v 25.92961 0.94635 49.99568
v 25.89962 1.91857 49.53457
v 25.59125 1.46886 48.60645
vn 0.21100 -0.18773 0.95929
vn 0.21100 -0.18773 0.95929
vn 0.21100 -0.18773 0.95929
vn 0.21100 -0.18773 0.95929
vn -0.21100 0.18773 -0.95929
vn -0.21100 0.18773 -0.95929
vn -0.21100 0.18773 -0.95929
vn -0.21100 0.18773 -0.95929
vn -0.16802 -0.97374 -0.15361
vn -0.16802 -0.97374 -0.15361
vn -0.16802 -0.97374 -0.15361
vn -0.16802 -0.97374 -0.15361
vn 0.16802 0.97374 0.15361
vn 0.16802 0.97374 0.15361
vn 0.16802 0.97374 0.15361
vn 0.16802 0.97374 0.15361
vn -0.96294 0.12877 0.23700
vn -0.96294 0.12877 0.23700
vn -0.96294 0.12877 0.23700
vn -0.96294 0.12877 0.23700
vn 0.96294 -0.12877 -0.23700
vn 0.96294 -0.12877 -0.23700
vn 0.96294 -0.12877 -0.23700
vn 0.96294 -0.12877 -0.23700
vn 0.86266 -0.06173 -0.50201
vn 0.86266 -0.06173 -0.50201
vn 0.86266 -0.06173 -0.50201
vn 0.86266 -0.06173 -0.50201
vn -0.86266 0.06173 0.50201
vn -0.86266 0.06173 0.50201
vn -0.86266 0.06173 0.50201
vn -0.86266 0.06173 0.50201
vn 0.12977 -0.93229 0.33763
vn 0.12977 -0.93229 0.33763
vn 0.12977 -0.93229 0.33763
vn 0.12977 -0.93229 0.33763
vn -0.12977 0.93229 -0.33763
vn -0.12977 0.93229 -0.33763
vn -0.12977 0.93229 -0.33763
vn -0.12977 0.93229 -0.33763
vn 0.48886 0.35641 0.79624
vn 0.48886 0.35641 0.79624
vn 0.48886 0.35641 0.79624
vn 0.48886 0.35641 0.79624
vn -0.48886 -0.35641 -0.79624
vn -0.48886 -0.35641 -0.79624
vn -0.48886 -0.35641 -0.79624
vn -0.48886 -0.35641 -0.79624
vn 0.01527 -0.30246 -0.95304
vn 0.01527 -0.30246 -0.95304
vn 0.01527 -0.30246 -0.95304
vn 0.01527 -0.30246 -0.95304
vn -0.01527 0.30246 0.95304
vn -0.01527 0.30246 0.95304
vn -0.01527 0.30246 0.95304
vn -0.01527 0.30246 0.95304
vn 0.26024 -0.91910 0.29586
vn 0.26024 -0.91910 0.29586
vn 0.26024 -0.91910 0.29586
vn 0.26024 -0.91910 0.29586
vn -0.26024 0.91910 -0.29586
vn -0.26024 0.91910 -0.29586
vn -0.26024 0.91910 -0.29586
vn -0.26024 0.91910 -0.29586
vn 0.96542 0.25254 -0.06467
vn 0.96542 0.25254 -0.06467
vn 0.96542 0.25254 -0.06467
vn 0.96542 0.25254 -0.06467
vn -0.96542 -0.25254 0.06467
vn -0.96542 -0.25254 0.06467
vn -0.96542 -0.25254 0.06467
vn -0.96542 -0.25254 0.06467
vn -0.85949 0.10733 0.49977
vn -0.85949 0.10733 0.49977
vn -0.85949 0.10733 0.49977
vn -0.85949 0.10733 0.49977
vn 0.85949 -0.10733 -0.49977
vn 0.85949 -0.10733 -0.49977
vn 0.85949 -0.10733 -0.49977
vn 0.85949 -0.10733 -0.49977
vn -0.26310 -0.93114 -0.25251
vn -0.26310 -0.93114 -0.25251
vn -0.26310 -0.93114 -0.25251
vn -0.26310 -0.93114 -0.25251
vn 0.26310 0.93114 0.25251
vn 0.26310 0.93114 0.25251
vn 0.26310 0.93114 0.25251
vn 0.26310 0.93114 0.25251
vn -0.43825 0.34851 -0.82854
vn -0.43825 0.34851 -0.82854
vn -0.43825 0.34851 -0.82854
vn -0.43825 0.34851 -0.82854
vn 0.43825 -0.34851 0.82854
vn 0.43825 -0.34851 0.82854
vn 0.43825 -0.34851 0.82854
vn 0.43825 -0.34851 0.82854
vn -0.04394 0.48745 -0.87204
vn -0.04394 0.48745 -0.87204
vn -0.04394 0.48745 -0.87204
vn -0.04394 0.48745 -0.87204
vn 0.04394 -0.48745 0.87204
vn 0.04394 -0.48745 0.87204
vn 0.04394 -0.48745 0.87204
vn 0.04394 -0.48745 0.87204
vn 0.13095 -0.86254 -0.48874
vn 0.13095 -0.86254 -0.48874
vn 0.13095 -0.86254 -0.48874
vn 0.13095 -0.86254 -0.48874
vn -0.13095 0.86254 0.48874
vn -0.13095 0.86254 0.48874
vn -0.13095 0.86254 0.48874
vn -0.13095 0.86254 0.48874
vn 0.99041 0.13567 0.02593
vn 0.99041 0.13567 0.02593
vn 0.99041 0.13567 0.02593
vn 0.99041 0.13567 0.02593
vn -0.99041 -0.13567 -0.02593
vn -0.99041 -0.13567 -0.02593
vn -0.99041 -0.13567 -0.02593
vn -0.99041 -0.13567 -0.02593
vn 0.23708 -0.36884 -0.89875
vn 0.23708 -0.36884 -0.89875
vn 0.23708 -0.36884 -0.89875
vn 0.23708 -0.36884 -0.89875
vn -0.23708 0.36884 0.89875
vn -0.23708 0.36884 0.89875
vn -0.23708 0.36884 0.89875
vn -0.23708 0.36884 0.89875
vn 0.33828 -0.83589 0.43227
vn 0.33828 -0.83589 0.43227
vn 0.33828 -0.83589 0.43227
vn 0.33828 -0.83589 0.43227
vn -0.33828 0.83589 -0.43227
vn -0.33828 0.83589 -0.43227
vn -0.33828 0.83589 -0.43227
vn -0.33828 0.83589 -0.43227
vn 0.91069 0.40651 0.07340
vn 0.91069 0.40651 0.07340
vn 0.91069 0.40651 0.07340
vn 0.91069 0.40651 0.07340
vn -0.91069 -0.40651 -0.07340
vn -0.91069 -0.40651 -0.07340
vn -0.91069 -0.40651 -0.07340
vn -0.91069 -0.40651 -0.07340
vn -0.79631 -0.51416 -0.31863
vn -0.79631 -0.51416 -0.31863
vn -0.79631 -0.51416 -0.31863
vn -0.79631 -0.51416 -0.31863
vn 0.79631 0.51416 0.31863
vn 0.79631 0.51416 0.31863
vn 0.79631 0.51416 0.31863
vn 0.79631 0.51416 0.31863
vn 0.39614 -0.84137 0.36766
vn 0.39614 -0.84137 0.36766
vn 0.39614 -0.84137 0.36766
vn 0.39614 -0.84137 0.36766
vn -0.39614 0.84137 -0.36766
vn -0.39614 0.84137 -0.36766
vn -0.39614 0.84137 -0.36766
vn -0.39614 0.84137 -0.36766
vn 0.45712 -0.16655 -0.87367
vn 0.45712 -0.16655 -0.87367
vn 0.45712 -0.16655 -0.87367
vn 0.45712 -0.16655 -0.87367
vn -0.45712 0.16655 0.87367
vn -0.45712 0.16655 0.87367
vn -0.45712 0.16655 0.87367
vn -0.45712 0.16655 0.87367
vn 0.96023 -0.15133 -0.23463
vn 0.96023 -0.15133 -0.23463
vn 0.96023 -0.15133 -0.23463
vn 0.96023 -0.15133 -0.23463
vn -0.96023 0.15133 0.23463
vn -0.96023 0.15133 0.23463
vn -0.96023 0.15133 0.23463
vn -0.96023 0.15133 0.23463
vn -0.20669 -0.95025 -0.23301
vn -0.20669 -0.95025 -0.23301
vn -0.20669 -0.95025 -0.23301
vn -0.20669 -0.95025 -0.23301
vn 0.20669 0.95025 0.23301
vn 0.20669 0.95025 0.23301
vn 0.20669 0.95025 0.23301
vn 0.20669 0.95025 0.23301
vn 0.18769 -0.27224 0.94375
vn 0.18769 -0.27224 0.94375
vn 0.18769 -0.27224 0.94375
vn 0.18769 -0.27224 0.94375
vn -0.18769 0.27224 -0.94375
vn -0.18769 0.27224 -0.94375
vn -0.18769 0.27224 -0.94375
vn -0.18769 0.27224 -0.94375
vn -0.54698 -0.18407 0.81666
vn -0.54698 -0.18407 0.81666
vn -0.54698 -0.18407 0.81666
vn -0.54698 -0.18407 0.81666
vn 0.54698 0.18407 -0.81666
vn 0.54698 0.18407 -0.81666
vn 0.54698 0.18407 -0.81666
vn 0.54698 0.18407 -0.81666
vn 0.45318 -0.88533 0.10398
vn 0.45318 -0.88533 0.10398
vn 0.45318 -0.88533 0.10398
vn 0.45318 -0.88533 0.10398
vn -0.45318 0.88533 -0.10398
vn -0.45318 0.88533 -0.10398
vn -0.45318 0.88533 -0.10398
vn -0.45318 0.88533 -0.10398
vn -0.70387 -0.42697 -0.56768
vn -0.70387 -0.42697 -0.56768
vn -0.70387 -0.42697 -0.56768
vn -0.70387 -0.42697 -0.56768
vn 0.70387 0.42697 0.56768
vn 0.70387 0.42697 0.56768
vn 0.70387 0.42697 0.56768
vn 0.70387 0.42697 0.56768
vn -0.28647 -0.41777 -0.86221
vn -0.28647 -0.41777 -0.86221
vn -0.28647 -0.41777 -0.86221
vn -0.28647 -0.41777 -0.86221
vn 0.28647 0.41777 0.86221
vn 0.28647 0.41777 0.86221
vn 0.28647 0.41777 0.86221
vn 0.28647 0.41777 0.86221
vn 0.02787 -0.90318 0.42837
vn 0.02787 -0.90318 0.42837
vn 0.02787 -0.90318 0.42837
vn 0.02787 -0.90318 0.42837
vn -0.02787 0.90318 -0.42837
vn -0.02787 0.90318 -0.42837
vn -0.02787 0.90318 -0.42837
vn -0.02787 0.90318 -0.42837
vn 0.95768 -0.09869 -0.27037
vn 0.95768 -0.09869 -0.27037
vn 0.95768 -0.09869 -0.27037
vn 0.95768 -0.09869 -0.27037
vn -0.95768 0.09869 0.27037
vn -0.95768 0.09869 0.27037
vn -0.95768 0.09869 0.27037
vn -0.95768 0.09869 0.27037
vt 0.000 0.000
vt 1.000 0.000
vt 1.000 1.000
vt 0.000 1.000
vt 0.000 0.000
vt 1.000 0.000
vt 1.000 1.000
vt 0.000 1.000
vt 0.000 0.000
vt 1.000 0.000
vt 1.000 1.000
vt 0.000 1.000
vt 0.000 0.000
vt 1.000 0.000
vt 1.000 1.000
vt 0.000 1.000
vt 0.000 0.000
vt 1.000 0.000
vt 1.000 1.000
vt 0.000 1.000
vt 0.000 0.000
vt 1.000 0.000
vt 1.000 1.000
vt 0.000 1.000
vt 0.000 0.000
vt 1.000 0.000
vt 1.000 1.000
vt 0.000 1.000
vt 0.000 0.000
vt 1.000 0.000
vt 1.000 1.000
vt 0.000 1.000
vt 0.000 0.000
vt 1.000 0.000
vt 1.000 1.000
vt 0.000 1.000
vt 0.000 0.000
vt 1.000 0.000
vt 1.000 1.000
vt 0.000 1.000
vt 0.000 0.000
vt 1.000 0.000
vt 1.000 1.000
vt 0.000 1.000
vt 0.000 0.000
vt 1.000 0.000
vt 1.000 1.000
vt 0.000 1.000
vt 0.000 0.000
vt 1.000 0.000
vt 1.000 1.000
vt 0.000 1.000
vt 0.000 0.000
vt 1.000 0.000
vt 1.000 1.000
vt 0.000 1.000
vt 0.000 0.000
vt 1.000 0.000
vt 1.000 1.000
vt 0.000 1.000
vt 0.000 0.000
vt 1.000 0.000
vt 1.000 1.000
vt 0.000 1.000
vt 0.000 0.000
vt 1.000 0.000
vt 1.000 1.000
vt 0.000 1.000
vt 0.000 0.000
vt 1.000 0.000
vt 1.000 1.000
vt 0.000 1.000
vt 0.000 0.000
vt 1.000 0.000
vt 1.000 1.000
vt 0.000 1.000
vt 0.000 0.000
vt 1.000 0.000
vt 1.000 1.000
vt 0.000 1.000
vt 0.000 0.000
vt 1.000 0.000
vt 1.000 1.000
vt 0.000 1.000
vt 0.000 0.000
vt 1.000 0.000
vt 1.000 1.000
vt 0.000 1.000
vt 0.000 0.000
vt 1.000 0.000
vt 1.000 1.000
vt 0.000 1.000
vt 0.000 0.000
vt 1.000 0.000
vt 1.000 1.000
vt 0.000 1.000
vt 0.000 0.000
vt 1.000 0.000
vt 1.000 1.000
vt 0.000 1.000
vt 0.000 0.000
vt 1.000 0.000
vt 1.000 1.000
vt 0.000 1.000
vt 0.000 0.000
vt 1.000 0.000
vt 1.000 1.000
vt 0.000 1.000
vt 0.000 0.000
vt 1.000 0.000
vt 1.000 1.000
vt 0.000 1.000
vt 0.000 0.000
vt 1.000 0.000
vt 1.000 1.000
vt 0.000 1.000
vt 0.000 0.000
vt 1.000 0.000
vt 1.000 1.000
vt 0.000 1.000
vt 0.000 0.000
vt 1.000 0.000
vt 1.000 1.000
vt 0.000 1.000
vt 0.000 0.000
vt 1.000 0.000
vt 1.000 1.000
vt 0.000 1.000
vt 0.000 0.000
vt 1.000 0.000
vt 1.000 1.000
vt 0.000 1.000
vt 0.000 0.000
vt 1.000 0.000
vt 1.000 1.000
vt 0.000 1.000
vt 0.000 0.000
vt 1.000 0.000
vt 1.000 1.000
vt 0.000 1.000
vt 0.000 0.000
vt 1.000 0.000
vt 1.000 1.000
vt 0.000 1.000
vt 0.000 0.000
vt 1.000 0.000
vt 1.000 1.000
vt 0.000 1.000
vt 0.000 0.000
vt 1.000 0.000
vt 1.000 1.000
vt 0.000 1.000
vt 0.000 0.000
vt 1.000 0.000
vt 1.000 1.000
vt 0.000 1.000
vt 0.000 0.000
vt 1.000 0.000
vt 1.000 1.000
vt 0.000 1.000
vt 0.000 0.000
vt 1.000 0.000
vt 1.000 1.000
vt 0.000 1.000
vt 0.000 0.000
vt 1.000 0.000
vt 1.000 1.000
vt 0.000 1.000
vt 0.000 0.000
vt 1.000 0.000
vt 1.000 1.000
vt 0.000 1.000
vt 0.000 0.000
vt 1.000 0.000
vt 1.000 1.000
vt 0.000 1.000
vt 0.000 0.000
vt 1.000 0.000
vt 1.000 1.000
vt 0.000 1.000
vt 0.000 0.000
vt 1.000 0.000
vt 1.000 1.000
vt 0.000 1.000
vt 0.000 0.000
vt 1.000 0.000
vt 1.000 1.000
vt 0.000 1.000
vt 0.000 0.000
vt 1.000 0.000
vt 1.000 1.000
vt 0.000 1.000
vt 0.000 0.000
vt 1.000 0.000
vt 1.000 1.000
vt 0.000 1.000
vt 0.000 0.000
vt 1.000 0.000
vt 1.000 1.000
vt 0.000 1.000
vt 0.000 0.000
vt 1.000 0.000
vt 1.000 1.000
vt 0.000 1.000
vt 0.000 0.000
vt 1.000 0.000
vt 1.000 1.000
vt 0.000 1.000
vt 0.000 0.000
vt 1.000 0.000
vt 1.000 1.000
vt 0.000 1.000
vt 0.000 0.000
vt 1.000 0.000
vt 1.000 1.000
vt 0.000 1.000
vt 0.000 0.000
vt 1.000 0.000
vt 1.000 1.000
vt 0.000 1.000
vt 0.000 0.000
vt 1.000 0.000
vt 1.000 1.000
vt 0.000 1.000
vt 0.000 0.000
vt 1.000 0.000
vt 1.000 1.000
vt 0.000 1.000
vt 0.000 0.000
vt 1.000 0.000
vt 1.000 1.000
vt 0.000 1.000
vt 0.000 0.000
vt 1.000 0.000
vt 1.000 1.000
vt 0.000 1.000
vt 0.000 0.000
vt 1.000 0.000
vt 1.000 1.000
vt 0.000 1.000
o PyriteAccent
f 1/1/1 2/2/2 3/3/3 4/4/4
f 5/5/5 6/6/6 7/7/7 8/8/8
f 9/9/9 10/10/10 11/11/11 12/12/12
f 13/13/13 14/14/14 15/15/15 16/16/16
f 17/17/17 18/18/18 19/19/19 20/20/20
f 21/21/21 22/22/22 23/23/23 24/24/24
f 25/25/25 26/26/26 27/27/27 28/28/28
f 29/29/29 30/30/30 31/31/31 32/32/32
f 33/33/33 34/34/34 35/35/35 36/36/36
f 37/37/37 38/38/38 39/39/39 40/40/40
f 41/41/41 42/42/42 43/43/43 44/44/44
f 45/45/45 46/46/46 47/47/47 48/48/48
f 49/49/49 50/50/50 51/51/51 52/52/52
f 53/53/53 54/54/54 55/55/55 56/56/56
f 57/57/57 58/58/58 59/59/59 60/60/60
f 61/61/61 62/62/62 63/63/63 64/64/64
f 65/65/65 66/66/66 67/67/67 68/68/68
f 69/69/69 70/70/70 71/71/71 72/72/72
f 73/73/73 74/74/74 75/75/75 76/76/76
f 77/77/77 78/78/78 79/79/79 80/80/80
f 81/81/81 82/82/82 83/83/83 84/84/84
f 85/85/85 86/86/86 87/87/87 88/88/88
f 89/89/89 90/90/90 91/91/91 92/92/92
f 93/93/93 94/94/94 95/95/95 96/96/96
f 97/97/97 98/98/98 99/99/99 100/100/100
f 101/101/101 102/102/102 103/103/103 104/104/104
f 105/105/105 106/106/106 107/107/107 108/108/108
f 109/109/109 110/110/110 111/111/111 112/112/112
f 113/113/113 114/114/114 115/115/115 116/116/116
f 117/117/117 118/118/118 119/119/119 120/120/120
f 121/121/121 122/122/122 123/123/123 124/124/124
f 125/125/125 126/126/126 127/127/127 128/128/128
f 129/129/129 130/130/130 131/131/131 132/132/132
f 133/133/133 134/134/134 135/135/135 136/136/136
f 137/137/137 138/138/138 139/139/139 140/140/140
f 141/141/141 142/142/142 143/143/143 144/144/144
f 145/145/145 146/146/146 147/147/147 148/148/148
f 149/149/149 150/150/150 151/151/151 152/152/152
f 153/153/153 154/154/154 155/155/155 156/156/156
f 157/157/157 158/158/158 159/159/159 160/160/160
f 161/161/161 162/162/162 163/163/163 164/164/164
f 165/165/165 166/166/166 167/167/167 168/168/168
f 169/169/169 170/170/170 171/171/171 172/172/172
f 173/173/173 174/174/174 175/175/175 176/176/176
f 177/177/177 178/178/178 179/179/179 180/180/180
f 181/181/181 182/182/182 183/183/183 184/184/184
f 185/185/185 186/186/186 187/187/187 188/188/188
f 189/189/189 190/190/190 191/191/191 192/192/192
f 193/193/193 194/194/194 195/195/195 196/196/196
f 197/197/197 198/198/198 199/199/199 200/200/200
f 201/201/201 202/202/202 203/203/203 204/204/204
f 205/205/205 206/206/206 207/207/207 208/208/208
f 209/209/209 210/210/210 211/211/211 212/212/212
f 213/213/213 214/214/214 215/215/215 216/216/216
f 217/217/217 218/218/218 219/219/219 220/220/220
f 221/221/221 222/222/222 223/223/223 224/224/224
f 225/225/225 226/226/226 227/227/227 228/228/228
f 229/229/229 230/230/230 231/231/231 232/232/232
f 233/233/233 234/234/234 235/235/235 236/236/236
f 237/237/237 238/238/238 239/239/239 240/240/240
