# PyriteHome dock
o dock
v 11.0015 0.4400 42.4900
v 8.9985 0.4400 42.4900
v 8.9985 0.4400 42.7100
v 11.0015 0.4400 42.7100
v 11.0015 0.5000 42.4900
v 8.9985 0.5000 42.4900
v 8.9985 0.5000 42.7100
v 11.0015 0.5000 42.7100
v 11.0033 0.4400 42.2400
v 8.9967 0.4400 42.2400
v 8.9967 0.4400 42.4600
v 11.0033 0.4400 42.4600
v 11.0033 0.5000 42.2400
v 8.9967 0.5000 42.2400
v 8.9967 0.5000 42.4600
v 11.0033 0.5000 42.4600
v 10.9967 0.4400 41.9900
v 9.0033 0.4400 41.9900
v 9.0033 0.4400 42.2100
v 10.9967 0.4400 42.2100
v 10.9967 0.5000 41.9900
v 9.0033 0.5000 41.9900
v 9.0033 0.5000 42.2100
v 10.9967 0.5000 42.2100
v 11.0045 0.4400 41.7400
v 8.9955 0.4400 41.7400
v 8.9955 0.4400 41.9600
v 11.0045 0.4400 41.9600
v 11.0045 0.5000 41.7400
v 8.9955 0.5000 41.7400
v 8.9955 0.5000 41.9600
v 11.0045 0.5000 41.9600
v 10.9941 0.4400 41.4900
v 9.0059 0.4400 41.4900
v 9.0059 0.4400 41.7100
v 10.9941 0.4400 41.7100
v 10.9941 0.5000 41.4900
v 9.0059 0.5000 41.4900
v 9.0059 0.5000 41.7100
v 10.9941 0.5000 41.7100
v 11.0036 0.4400 41.2400
v 8.9964 0.4400 41.2400
v 8.9964 0.4400 41.4600
v 11.0036 0.4400 41.4600
v 11.0036 0.5000 41.2400
v 8.9964 0.5000 41.2400
v 8.9964 0.5000 41.4600
v 11.0036 0.5000 41.4600
v 10.9996 0.4400 40.9900
v 9.0004 0.4400 40.9900
v 9.0004 0.4400 41.2100
v 10.9996 0.4400 41.2100
v 10.9996 0.5000 40.9900
v 9.0004 0.5000 40.9900
v 9.0004 0.5000 41.2100
v 10.9996 0.5000 41.2100
v 10.9973 0.4400 40.7400
v 9.0027 0.4400 40.7400
v 9.0027 0.4400 40.9600
v 10.9973 0.4400 40.9600
v 10.9973 0.5000 40.7400
v 9.0027 0.5000 40.7400
v 9.0027 0.5000 40.9600
v 10.9973 0.5000 40.9600
v 10.9971 0.4400 40.4900
v 9.0029 0.4400 40.4900
v 9.0029 0.4400 40.7100
v 10.9971 0.4400 40.7100
v 10.9971 0.5000 40.4900
v 9.0029 0.5000 40.4900
v 9.0029 0.5000 40.7100
v 10.9971 0.5000 40.7100
v 11.0001 0.4400 40.2400
v 8.9999 0.4400 40.2400
v 8.9999 0.4400 40.4600
v 11.0001 0.4400 40.4600
v 11.0001 0.5000 40.2400
v 8.9999 0.5000 40.2400
v 8.9999 0.5000 40.4600
v 11.0001 0.5000 40.4600
v 11.0006 0.4400 39.9900
v 8.9994 0.4400 39.9900
v 8.9994 0.4400 40.2100
v 11.0006 0.4400 40.2100
v 11.0006 0.5000 39.9900
v 8.9994 0.5000 39.9900
v 8.9994 0.5000 40.2100
v 11.0006 0.5000 40.2100
v 11.0035 0.4400 39.7400
v 8.9965 0.4400 39.7400
v 8.9965 0.4400 39.9600
v 11.0035 0.4400 39.9600
v 11.0035 0.5000 39.7400
v 8.9965 0.5000 39.7400
v 8.9965 0.5000 39.9600
v 11.0035 0.5000 39.9600
v 11.0015 0.4400 39.4900
v 8.9985 0.4400 39.4900
v 8.9985 0.4400 39.7100
v 11.0015 0.4400 39.7100
v 11.0015 0.5000 39.4900
v 8.9985 0.5000 39.4900
v 8.9985 0.5000 39.7100
v 11.0015 0.5000 39.7100
v 10.9966 0.4400 39.2400
v 9.0034 0.4400 39.2400
v 9.0034 0.4400 39.4600
v 10.9966 0.4400 39.4600
v 10.9966 0.5000 39.2400
v 9.0034 0.5000 39.2400
v 9.0034 0.5000 39.4600
v 10.9966 0.5000 39.4600
v 10.9959 0.4400 38.9900
v 9.0041 0.4400 38.9900
v 9.0041 0.4400 39.2100
v 10.9959 0.4400 39.2100
v 10.9959 0.5000 38.9900
v 9.0041 0.5000 38.9900
v 9.0041 0.5000 39.2100
v 10.9959 0.5000 39.2100
v 10.9945 0.4400 38.7400
v 9.0055 0.4400 38.7400
v 9.0055 0.4400 38.9600
v 10.9945 0.4400 38.9600
v 10.9945 0.5000 38.7400
v 9.0055 0.5000 38.7400
v 9.0055 0.5000 38.9600
v 10.9945 0.5000 38.9600
v 10.9944 0.4400 38.4900
v 9.0056 0.4400 38.4900
v 9.0056 0.4400 38.7100
v 10.9944 0.4400 38.7100
v 10.9944 0.5000 38.4900
v 9.0056 0.5000 38.4900
v 9.0056 0.5000 38.7100
v 10.9944 0.5000 38.7100
v 10.9996 0.4400 38.2400
v 9.0004 0.4400 38.2400
v 9.0004 0.4400 38.4600
v 10.9996 0.4400 38.4600
v 10.9996 0.5000 38.2400
v 9.0004 0.5000 38.2400
v 9.0004 0.5000 38.4600
v 10.9996 0.5000 38.4600
v 11.0050 0.4400 37.9900
v 8.9950 0.4400 37.9900
v 8.9950 0.4400 38.2100
v 11.0050 0.4400 38.2100
v 11.0050 0.5000 37.9900
v 8.9950 0.5000 37.9900
v 8.9950 0.5000 38.2100
v 11.0050 0.5000 38.2100
v 11.0002 0.4400 37.7400
v 8.9998 0.4400 37.7400
v 8.9998 0.4400 37.9600
v 11.0002 0.4400 37.9600
v 11.0002 0.5000 37.7400
v 8.9998 0.5000 37.7400
v 8.9998 0.5000 37.9600
v 11.0002 0.5000 37.9600
v 11.0000 0.4400 37.4900
v 9.0000 0.4400 37.4900
v 9.0000 0.4400 37.7100
v 11.0000 0.4400 37.7100
v 11.0000 0.5000 37.4900
v 9.0000 0.5000 37.4900
v 9.0000 0.5000 37.7100
v 11.0000 0.5000 37.7100
v 10.9941 0.4400 37.2400
v 9.0059 0.4400 37.2400
v 9.0059 0.4400 37.4600
v 10.9941 0.4400 37.4600
v 10.9941 0.5000 37.2400
v 9.0059 0.5000 37.2400
v 9.0059 0.5000 37.4600
v 10.9941 0.5000 37.4600
v 10.9963 0.4400 36.9900
v 9.0037 0.4400 36.9900
v 9.0037 0.4400 37.2100
v 10.9963 0.4400 37.2100
v 10.9963 0.5000 36.9900
v 9.0037 0.5000 36.9900
v 9.0037 0.5000 37.2100
v 10.9963 0.5000 37.2100
v 10.9964 0.4400 36.7400
v 9.0036 0.4400 36.7400
v 9.0036 0.4400 36.9600
v 10.9964 0.4400 36.9600
v 10.9964 0.5000 36.7400
v 9.0036 0.5000 36.7400
v 9.0036 0.5000 36.9600
v 10.9964 0.5000 36.9600
v 10.9984 0.4400 36.4900
v 9.0016 0.4400 36.4900
v 9.0016 0.4400 36.7100
v 10.9984 0.4400 36.7100
v 10.9984 0.5000 36.4900
v 9.0016 0.5000 36.4900
v 9.0016 0.5000 36.7100
v 10.9984 0.5000 36.7100
v 11.0040 0.4400 36.2400
v 8.9960 0.4400 36.2400
v 8.9960 0.4400 36.4600
v 11.0040 0.4400 36.4600
v 11.0040 0.5000 36.2400
v 8.9960 0.5000 36.2400
v 8.9960 0.5000 36.4600
v 11.0040 0.5000 36.4600
v 10.9959 0.4400 35.9900
v 9.0041 0.4400 35.9900
v 9.0041 0.4400 36.2100
v 10.9959 0.4400 36.2100
v 10.9959 0.5000 35.9900
v 9.0041 0.5000 35.9900
v 9.0041 0.5000 36.2100
v 10.9959 0.5000 36.2100
v 11.0046 0.4400 35.7400
v 8.9954 0.4400 35.7400
v 8.9954 0.4400 35.9600
v 11.0046 0.4400 35.9600
v 11.0046 0.5000 35.7400
v 8.9954 0.5000 35.7400
v 8.9954 0.5000 35.9600
v 11.0046 0.5000 35.9600
v 11.0001 0.4400 35.4900
v 8.9999 0.4400 35.4900
v 8.9999 0.4400 35.7100
v 11.0001 0.4400 35.7100
v 11.0001 0.5000 35.4900
v 8.9999 0.5000 35.4900
v 8.9999 0.5000 35.7100
v 11.0001 0.5000 35.7100
v 11.0017 0.4400 35.2400
v 8.9983 0.4400 35.2400
v 8.9983 0.4400 35.4600
v 11.0017 0.4400 35.4600
v 11.0017 0.5000 35.2400
v 8.9983 0.5000 35.2400
v 8.9983 0.5000 35.4600
v 11.0017 0.5000 35.4600
v 11.0029 0.4400 34.9900
v 8.9971 0.4400 34.9900
v 8.9971 0.4400 35.2100
v 11.0029 0.4400 35.2100
v 11.0029 0.5000 34.9900
v 8.9971 0.5000 34.9900
v 8.9971 0.5000 35.2100
v 11.0029 0.5000 35.2100
v 11.0005 0.4400 34.7400
v 8.9995 0.4400 34.7400
v 8.9995 0.4400 34.9600
v 11.0005 0.4400 34.9600
v 11.0005 0.5000 34.7400
v 8.9995 0.5000 34.7400
v 8.9995 0.5000 34.9600
v 11.0005 0.5000 34.9600
v 11.0001 0.4400 34.4900
v 8.9999 0.4400 34.4900
v 8.9999 0.4400 34.7100
v 11.0001 0.4400 34.7100
v 11.0001 0.5000 34.4900
v 8.9999 0.5000 34.4900
v 8.9999 0.5000 34.7100
v 11.0001 0.5000 34.7100
v 10.9983 0.4400 34.2400
v 9.0017 0.4400 34.2400
v 9.0017 0.4400 34.4600
v 10.9983 0.4400 34.4600
v 10.9983 0.5000 34.2400
v 9.0017 0.5000 34.2400
v 9.0017 0.5000 34.4600
v 10.9983 0.5000 34.4600
v 11.0012 0.4400 33.9900
v 8.9988 0.4400 33.9900
v 8.9988 0.4400 34.2100
v 11.0012 0.4400 34.2100
v 11.0012 0.5000 33.9900
v 8.9988 0.5000 33.9900
v 8.9988 0.5000 34.2100
v 11.0012 0.5000 34.2100
v 10.9987 0.4400 33.7400
v 9.0013 0.4400 33.7400
v 9.0013 0.4400 33.9600
v 10.9987 0.4400 33.9600
v 10.9987 0.5000 33.7400
v 9.0013 0.5000 33.7400
v 9.0013 0.5000 33.9600
v 10.9987 0.5000 33.9600
v 10.9979 0.4400 33.4900
v 9.0021 0.4400 33.4900
v 9.0021 0.4400 33.7100
v 10.9979 0.4400 33.7100
v 10.9979 0.5000 33.4900
v 9.0021 0.5000 33.4900
v 9.0021 0.5000 33.7100
v 10.9979 0.5000 33.7100
v 11.0038 0.4400 33.2400
v 8.9962 0.4400 33.2400
v 8.9962 0.4400 33.4600
v 11.0038 0.4400 33.4600
v 11.0038 0.5000 33.2400
v 8.9962 0.5000 33.2400
v 8.9962 0.5000 33.4600
v 11.0038 0.5000 33.4600
v 10.9986 0.4400 32.9900
v 9.0014 0.4400 32.9900
v 9.0014 0.4400 33.2100
v 10.9986 0.4400 33.2100
v 10.9986 0.5000 32.9900
v 9.0014 0.5000 32.9900
v 9.0014 0.5000 33.2100
v 10.9986 0.5000 33.2100
v 11.0011 0.4400 32.7400
v 8.9989 0.4400 32.7400
v 8.9989 0.4400 32.9600
v 11.0011 0.4400 32.9600
v 11.0011 0.5000 32.7400
v 8.9989 0.5000 32.7400
v 8.9989 0.5000 32.9600
v 11.0011 0.5000 32.9600
v 11.0013 0.4400 32.4900
v 8.9987 0.4400 32.4900
v 8.9987 0.4400 32.7100
v 11.0013 0.4400 32.7100
v 11.0013 0.5000 32.4900
v 8.9987 0.5000 32.4900
v 8.9987 0.5000 32.7100
v 11.0013 0.5000 32.7100
v 11.0021 0.4400 32.2400
v 8.9979 0.4400 32.2400
v 8.9979 0.4400 32.4600
v 11.0021 0.4400 32.4600
v 11.0021 0.5000 32.2400
v 8.9979 0.5000 32.2400
v 8.9979 0.5000 32.4600
v 11.0021 0.5000 32.4600
v 10.9958 0.4400 31.9900
v 9.0042 0.4400 31.9900
v 9.0042 0.4400 32.2100
v 10.9958 0.4400 32.2100
v 10.9958 0.5000 31.9900
v 9.0042 0.5000 31.9900
v 9.0042 0.5000 32.2100
v 10.9958 0.5000 32.2100
v 10.9969 0.4400 31.7400
v 9.0031 0.4400 31.7400
v 9.0031 0.4400 31.9600
v 10.9969 0.4400 31.9600
v 10.9969 0.5000 31.7400
v 9.0031 0.5000 31.7400
v 9.0031 0.5000 31.9600
v 10.9969 0.5000 31.9600
v 10.9988 0.4400 31.4900
v 9.0012 0.4400 31.4900
v 9.0012 0.4400 31.7100
v 10.9988 0.4400 31.7100
v 10.9988 0.5000 31.4900
v 9.0012 0.5000 31.4900
v 9.0012 0.5000 31.7100
v 10.9988 0.5000 31.7100
v 11.0056 0.4400 31.2400
v 8.9944 0.4400 31.2400
v 8.9944 0.4400 31.4600
v 11.0056 0.4400 31.4600
v 11.0056 0.5000 31.2400
v 8.9944 0.5000 31.2400
v 8.9944 0.5000 31.4600
v 11.0056 0.5000 31.4600
v 10.9966 0.4400 30.9900
v 9.0034 0.4400 30.9900
v 9.0034 0.4400 31.2100
v 10.9966 0.4400 31.2100
v 10.9966 0.5000 30.9900
v 9.0034 0.5000 30.9900
v 9.0034 0.5000 31.2100
v 10.9966 0.5000 31.2100
v 10.7800 0.2200 30.9000
v 10.6200 0.2200 30.9000
v 10.6200 0.2200 42.7000
v 10.7800 0.2200 42.7000
v 10.7800 0.4400 30.9000
v 10.6200 0.4400 30.9000
v 10.6200 0.4400 42.7000
v 10.7800 0.4400 42.7000
v 9.3800 0.2200 30.9000
v 9.2200 0.2200 30.9000
v 9.2200 0.2200 42.7000
v 9.3800 0.2200 42.7000
v 9.3800 0.4400 30.9000
v 9.2200 0.4400 30.9000
v 9.2200 0.4400 42.7000
v 9.3800 0.4400 42.7000
v 10.7900 -0.0224 42.1100
v 10.6100 -0.0224 42.1100
v 10.6100 -0.0224 42.2900
v 10.7900 -0.0224 42.2900
v 10.7900 0.2400 42.1100
v 10.6100 0.2400 42.1100
v 10.6100 0.2400 42.2900
v 10.7900 0.2400 42.2900
v 9.3900 0.0004 42.1100
v 9.2100 0.0004 42.1100
v 9.2100 0.0004 42.2900
v 9.3900 0.0004 42.2900
v 9.3900 0.2400 42.1100
v 9.2100 0.2400 42.1100
v 9.2100 0.2400 42.2900
v 9.3900 0.2400 42.2900
v 10.7900 -0.4303 39.8100
v 10.6100 -0.4303 39.8100
v 10.6100 -0.4303 39.9900
v 10.7900 -0.4303 39.9900
v 10.7900 0.2400 39.8100
v 10.6100 0.2400 39.8100
v 10.6100 0.2400 39.9900
v 10.7900 0.2400 39.9900
v 9.3900 -0.4421 39.8100
v 9.2100 -0.4421 39.8100
v 9.2100 -0.4421 39.9900
v 9.3900 -0.4421 39.9900
v 9.3900 0.2400 39.8100
v 9.2100 0.2400 39.8100
v 9.2100 0.2400 39.9900
v 9.3900 0.2400 39.9900
v 10.7900 -0.7076 37.5100
v 10.6100 -0.7076 37.5100
v 10.6100 -0.7076 37.6900
v 10.7900 -0.7076 37.6900
v 10.7900 0.2400 37.5100
v 10.6100 0.2400 37.5100
v 10.6100 0.2400 37.6900
v 10.7900 0.2400 37.6900
v 9.3900 -0.7567 37.5100
v 9.2100 -0.7567 37.5100
v 9.2100 -0.7567 37.6900
v 9.3900 -0.7567 37.6900
v 9.3900 0.2400 37.5100
v 9.2100 0.2400 37.5100
v 9.2100 0.2400 37.6900
v 9.3900 0.2400 37.6900
v 10.7900 -1.2189 35.2100
v 10.6100 -1.2189 35.2100
v 10.6100 -1.2189 35.3900
v 10.7900 -1.2189 35.3900
v 10.7900 0.2400 35.2100
v 10.6100 0.2400 35.2100
v 10.6100 0.2400 35.3900
v 10.7900 0.2400 35.3900
v 9.3900 -1.2962 35.2100
v 9.2100 -1.2962 35.2100
v 9.2100 -1.2962 35.3900
v 9.3900 -1.2962 35.3900
v 9.3900 0.2400 35.2100
v 9.2100 0.2400 35.2100
v 9.2100 0.2400 35.3900
v 9.3900 0.2400 35.3900
v 10.7900 -1.9157 32.9100
v 10.6100 -1.9157 32.9100
v 10.6100 -1.9157 33.0900
v 10.7900 -1.9157 33.0900
v 10.7900 0.2400 32.9100
v 10.6100 0.2400 32.9100
v 10.6100 0.2400 33.0900
v 10.7900 0.2400 33.0900
v 9.3900 -2.0172 32.9100
v 9.2100 -2.0172 32.9100
v 9.2100 -2.0172 33.0900
v 9.3900 -2.0172 33.0900
v 9.3900 0.2400 32.9100
v 9.2100 0.2400 32.9100
v 9.2100 0.2400 33.0900
v 9.3900 0.2400 33.0900
v 10.7900 -2.5200 31.2100
v 10.6100 -2.5200 31.2100
v 10.6100 -2.5200 31.3900
v 10.7900 -2.5200 31.3900
v 10.7900 0.2400 31.2100
v 10.6100 0.2400 31.2100
v 10.6100 0.2400 31.3900
v 10.7900 0.2400 31.3900
v 9.3900 -2.6366 31.2100
v 9.2100 -2.6366 31.2100
v 9.2100 -2.6366 31.3900
v 9.3900 -2.6366 31.3900
v 9.3900 0.2400 31.2100
v 9.2100 0.2400 31.2100
v 9.2100 0.2400 31.3900
v 9.3900 0.2400 31.3900
v 10.8000 0.3500 31.2500
v 10.6000 0.3500 31.2500
v 10.6000 0.3500 31.4500
v 10.8000 0.3500 31.4500
v 10.8000 1.2500 31.2500
v 10.6000 1.2500 31.2500
v 10.6000 1.2500 31.4500
v 10.8000 1.2500 31.4500
vt 0.00000 0.62900
vt 0.83458 0.62900
vt 0.83458 0.74600
vt 0.00000 0.74600
vt 0.00000 0.62900
vt 0.83458 0.62900
vt 0.83458 0.74600
vt 0.00000 0.74600
vt 0.00000 0.62900
vt 0.83458 0.62900
vt 0.83458 0.74600
vt 0.00000 0.74600
vt 0.00000 0.62900
vt 0.83458 0.62900
vt 0.83458 0.74600
vt 0.00000 0.74600
vt 0.00000 0.62900
vt 0.09167 0.62900
vt 0.09167 0.74600
vt 0.00000 0.74600
vt 0.00000 0.62900
vt 0.09167 0.62900
vt 0.09167 0.74600
vt 0.00000 0.74600
vt 0.00000 0.87900
vt 0.83609 0.87900
vt 0.83609 0.99600
vt 0.00000 0.99600
vt 0.00000 0.87900
vt 0.83609 0.87900
vt 0.83609 0.99600
vt 0.00000 0.99600
vt 0.00000 0.87900
vt 0.83609 0.87900
vt 0.83609 0.99600
vt 0.00000 0.99600
vt 0.00000 0.87900
vt 0.83609 0.87900
vt 0.83609 0.99600
vt 0.00000 0.99600
vt 0.00000 0.87900
vt 0.09167 0.87900
vt 0.09167 0.99600
vt 0.00000 0.99600
vt 0.00000 0.87900
vt 0.09167 0.87900
vt 0.09167 0.99600
vt 0.00000 0.99600
vt 0.00000 0.00400
vt 0.83059 0.00400
vt 0.83059 0.12100
vt 0.00000 0.12100
vt 0.00000 0.00400
vt 0.83059 0.00400
vt 0.83059 0.12100
vt 0.00000 0.12100
vt 0.00000 0.00400
vt 0.83059 0.00400
vt 0.83059 0.12100
vt 0.00000 0.12100
vt 0.00000 0.00400
vt 0.83059 0.00400
vt 0.83059 0.12100
vt 0.00000 0.12100
vt 0.00000 0.00400
vt 0.09167 0.00400
vt 0.09167 0.12100
vt 0.00000 0.12100
vt 0.00000 0.00400
vt 0.09167 0.00400
vt 0.09167 0.12100
vt 0.00000 0.12100
vt 0.00000 0.25400
vt 0.83707 0.25400
vt 0.83707 0.37100
vt 0.00000 0.37100
vt 0.00000 0.25400
vt 0.83707 0.25400
vt 0.83707 0.37100
vt 0.00000 0.37100
vt 0.00000 0.25400
vt 0.83707 0.25400
vt 0.83707 0.37100
vt 0.00000 0.37100
vt 0.00000 0.25400
vt 0.83707 0.25400
vt 0.83707 0.37100
vt 0.00000 0.37100
vt 0.00000 0.25400
vt 0.09167 0.25400
vt 0.09167 0.37100
vt 0.00000 0.37100
vt 0.00000 0.25400
vt 0.09167 0.25400
vt 0.09167 0.37100
vt 0.00000 0.37100
vt 0.00000 0.37900
vt 0.82839 0.37900
vt 0.82839 0.49600
vt 0.00000 0.49600
vt 0.00000 0.37900
vt 0.82839 0.37900
vt 0.82839 0.49600
vt 0.00000 0.49600
vt 0.00000 0.37900
vt 0.82839 0.37900
vt 0.82839 0.49600
vt 0.00000 0.49600
vt 0.00000 0.37900
vt 0.82839 0.37900
vt 0.82839 0.49600
vt 0.00000 0.49600
vt 0.00000 0.37900
vt 0.09167 0.37900
vt 0.09167 0.49600
vt 0.00000 0.49600
vt 0.00000 0.37900
vt 0.09167 0.37900
vt 0.09167 0.49600
vt 0.00000 0.49600
vt 0.00000 0.75400
vt 0.83630 0.75400
vt 0.83630 0.87100
vt 0.00000 0.87100
vt 0.00000 0.75400
vt 0.83630 0.75400
vt 0.83630 0.87100
vt 0.00000 0.87100
vt 0.00000 0.75400
vt 0.83630 0.75400
vt 0.83630 0.87100
vt 0.00000 0.87100
vt 0.00000 0.75400
vt 0.83630 0.75400
vt 0.83630 0.87100
vt 0.00000 0.87100
vt 0.00000 0.75400
vt 0.09167 0.75400
vt 0.09167 0.87100
vt 0.00000 0.87100
vt 0.00000 0.75400
vt 0.09167 0.75400
vt 0.09167 0.87100
vt 0.00000 0.87100
vt 0.00000 0.75400
vt 0.83301 0.75400
vt 0.83301 0.87100
vt 0.00000 0.87100
vt 0.00000 0.75400
vt 0.83301 0.75400
vt 0.83301 0.87100
vt 0.00000 0.87100
vt 0.00000 0.75400
vt 0.83301 0.75400
vt 0.83301 0.87100
vt 0.00000 0.87100
vt 0.00000 0.75400
vt 0.83301 0.75400
vt 0.83301 0.87100
vt 0.00000 0.87100
vt 0.00000 0.75400
vt 0.09167 0.75400
vt 0.09167 0.87100
vt 0.00000 0.87100
vt 0.00000 0.75400
vt 0.09167 0.75400
vt 0.09167 0.87100
vt 0.00000 0.87100
vt 0.00000 0.25400
vt 0.83112 0.25400
vt 0.83112 0.37100
vt 0.00000 0.37100
vt 0.00000 0.25400
vt 0.83112 0.25400
vt 0.83112 0.37100
vt 0.00000 0.37100
vt 0.00000 0.25400
vt 0.83112 0.25400
vt 0.83112 0.37100
vt 0.00000 0.37100
vt 0.00000 0.25400
vt 0.83112 0.25400
vt 0.83112 0.37100
vt 0.00000 0.37100
vt 0.00000 0.25400
vt 0.09167 0.25400
vt 0.09167 0.37100
vt 0.00000 0.37100
vt 0.00000 0.25400
vt 0.09167 0.25400
vt 0.09167 0.37100
vt 0.00000 0.37100
vt 0.00000 0.87900
vt 0.83088 0.87900
vt 0.83088 0.99600
vt 0.00000 0.99600
vt 0.00000 0.87900
vt 0.83088 0.87900
vt 0.83088 0.99600
vt 0.00000 0.99600
vt 0.00000 0.87900
vt 0.83088 0.87900
vt 0.83088 0.99600
vt 0.00000 0.99600
vt 0.00000 0.87900
vt 0.83088 0.87900
vt 0.83088 0.99600
vt 0.00000 0.99600
vt 0.00000 0.87900
vt 0.09167 0.87900
vt 0.09167 0.99600
vt 0.00000 0.99600
vt 0.00000 0.87900
vt 0.09167 0.87900
vt 0.09167 0.99600
vt 0.00000 0.99600
vt 0.00000 0.37900
vt 0.83338 0.37900
vt 0.83338 0.49600
vt 0.00000 0.49600
vt 0.00000 0.37900
vt 0.83338 0.37900
vt 0.83338 0.49600
vt 0.00000 0.49600
vt 0.00000 0.37900
vt 0.83338 0.37900
vt 0.83338 0.49600
vt 0.00000 0.49600
vt 0.00000 0.37900
vt 0.83338 0.37900
vt 0.83338 0.49600
vt 0.00000 0.49600
vt 0.00000 0.37900
vt 0.09167 0.37900
vt 0.09167 0.49600
vt 0.00000 0.49600
vt 0.00000 0.37900
vt 0.09167 0.37900
vt 0.09167 0.49600
vt 0.00000 0.49600
vt 0.00000 0.50400
vt 0.83387 0.50400
vt 0.83387 0.62100
vt 0.00000 0.62100
vt 0.00000 0.50400
vt 0.83387 0.50400
vt 0.83387 0.62100
vt 0.00000 0.62100
vt 0.00000 0.50400
vt 0.83387 0.50400
vt 0.83387 0.62100
vt 0.00000 0.62100
vt 0.00000 0.50400
vt 0.83387 0.50400
vt 0.83387 0.62100
vt 0.00000 0.62100
vt 0.00000 0.50400
vt 0.09167 0.50400
vt 0.09167 0.62100
vt 0.00000 0.62100
vt 0.00000 0.50400
vt 0.09167 0.50400
vt 0.09167 0.62100
vt 0.00000 0.62100
vt 0.00000 0.87900
vt 0.83626 0.87900
vt 0.83626 0.99600
vt 0.00000 0.99600
vt 0.00000 0.87900
vt 0.83626 0.87900
vt 0.83626 0.99600
vt 0.00000 0.99600
vt 0.00000 0.87900
vt 0.83626 0.87900
vt 0.83626 0.99600
vt 0.00000 0.99600
vt 0.00000 0.87900
vt 0.83626 0.87900
vt 0.83626 0.99600
vt 0.00000 0.99600
vt 0.00000 0.87900
vt 0.09167 0.87900
vt 0.09167 0.99600
vt 0.00000 0.99600
vt 0.00000 0.87900
vt 0.09167 0.87900
vt 0.09167 0.99600
vt 0.00000 0.99600
vt 0.00000 0.25400
vt 0.83456 0.25400
vt 0.83456 0.37100
vt 0.00000 0.37100
vt 0.00000 0.25400
vt 0.83456 0.25400
vt 0.83456 0.37100
vt 0.00000 0.37100
vt 0.00000 0.25400
vt 0.83456 0.25400
vt 0.83456 0.37100
vt 0.00000 0.37100
vt 0.00000 0.25400
vt 0.83456 0.25400
vt 0.83456 0.37100
vt 0.00000 0.37100
vt 0.00000 0.25400
vt 0.09167 0.25400
vt 0.09167 0.37100
vt 0.00000 0.37100
vt 0.00000 0.25400
vt 0.09167 0.25400
vt 0.09167 0.37100
vt 0.00000 0.37100
vt 0.00000 0.87900
vt 0.83049 0.87900
vt 0.83049 0.99600
vt 0.00000 0.99600
vt 0.00000 0.87900
vt 0.83049 0.87900
vt 0.83049 0.99600
vt 0.00000 0.99600
vt 0.00000 0.87900
vt 0.83049 0.87900
vt 0.83049 0.99600
vt 0.00000 0.99600
vt 0.00000 0.87900
vt 0.83049 0.87900
vt 0.83049 0.99600
vt 0.00000 0.99600
vt 0.00000 0.87900
vt 0.09167 0.87900
vt 0.09167 0.99600
vt 0.00000 0.99600
vt 0.00000 0.87900
vt 0.09167 0.87900
vt 0.09167 0.99600
vt 0.00000 0.99600
vt 0.00000 0.75400
vt 0.82994 0.75400
vt 0.82994 0.87100
vt 0.00000 0.87100
vt 0.00000 0.75400
vt 0.82994 0.75400
vt 0.82994 0.87100
vt 0.00000 0.87100
vt 0.00000 0.75400
vt 0.82994 0.75400
vt 0.82994 0.87100
vt 0.00000 0.87100
vt 0.00000 0.75400
vt 0.82994 0.75400
vt 0.82994 0.87100
vt 0.00000 0.87100
vt 0.00000 0.75400
vt 0.09167 0.75400
vt 0.09167 0.87100
vt 0.00000 0.87100
vt 0.00000 0.75400
vt 0.09167 0.75400
vt 0.09167 0.87100
vt 0.00000 0.87100
vt 0.00000 0.50400
vt 0.82877 0.50400
vt 0.82877 0.62100
vt 0.00000 0.62100
vt 0.00000 0.50400
vt 0.82877 0.50400
vt 0.82877 0.62100
vt 0.00000 0.62100
vt 0.00000 0.50400
vt 0.82877 0.50400
vt 0.82877 0.62100
vt 0.00000 0.62100
vt 0.00000 0.50400
vt 0.82877 0.50400
vt 0.82877 0.62100
vt 0.00000 0.62100
vt 0.00000 0.50400
vt 0.09167 0.50400
vt 0.09167 0.62100
vt 0.00000 0.62100
vt 0.00000 0.50400
vt 0.09167 0.50400
vt 0.09167 0.62100
vt 0.00000 0.62100
vt 0.00000 0.12900
vt 0.82869 0.12900
vt 0.82869 0.24600
vt 0.00000 0.24600
vt 0.00000 0.12900
vt 0.82869 0.12900
vt 0.82869 0.24600
vt 0.00000 0.24600
vt 0.00000 0.12900
vt 0.82869 0.12900
vt 0.82869 0.24600
vt 0.00000 0.24600
vt 0.00000 0.12900
vt 0.82869 0.12900
vt 0.82869 0.24600
vt 0.00000 0.24600
vt 0.00000 0.12900
vt 0.09167 0.12900
vt 0.09167 0.24600
vt 0.00000 0.24600
vt 0.00000 0.12900
vt 0.09167 0.12900
vt 0.09167 0.24600
vt 0.00000 0.24600
vt 0.00000 0.50400
vt 0.83300 0.50400
vt 0.83300 0.62100
vt 0.00000 0.62100
vt 0.00000 0.50400
vt 0.83300 0.50400
vt 0.83300 0.62100
vt 0.00000 0.62100
vt 0.00000 0.50400
vt 0.83300 0.50400
vt 0.83300 0.62100
vt 0.00000 0.62100
vt 0.00000 0.50400
vt 0.83300 0.50400
vt 0.83300 0.62100
vt 0.00000 0.62100
vt 0.00000 0.50400
vt 0.09167 0.50400
vt 0.09167 0.62100
vt 0.00000 0.62100
vt 0.00000 0.50400
vt 0.09167 0.50400
vt 0.09167 0.62100
vt 0.00000 0.62100
vt 0.00000 0.75400
vt 0.83751 0.75400
vt 0.83751 0.87100
vt 0.00000 0.87100
vt 0.00000 0.75400
vt 0.83751 0.75400
vt 0.83751 0.87100
vt 0.00000 0.87100
vt 0.00000 0.75400
vt 0.83751 0.75400
vt 0.83751 0.87100
vt 0.00000 0.87100
vt 0.00000 0.75400
vt 0.83751 0.75400
vt 0.83751 0.87100
vt 0.00000 0.87100
vt 0.00000 0.75400
vt 0.09167 0.75400
vt 0.09167 0.87100
vt 0.00000 0.87100
vt 0.00000 0.75400
vt 0.09167 0.75400
vt 0.09167 0.87100
vt 0.00000 0.87100
vt 0.00000 0.62900
vt 0.83347 0.62900
vt 0.83347 0.74600
vt 0.00000 0.74600
vt 0.00000 0.62900
vt 0.83347 0.62900
vt 0.83347 0.74600
vt 0.00000 0.74600
vt 0.00000 0.62900
vt 0.83347 0.62900
vt 0.83347 0.74600
vt 0.00000 0.74600
vt 0.00000 0.62900
vt 0.83347 0.62900
vt 0.83347 0.74600
vt 0.00000 0.74600
vt 0.00000 0.62900
vt 0.09167 0.62900
vt 0.09167 0.74600
vt 0.00000 0.74600
vt 0.00000 0.62900
vt 0.09167 0.62900
vt 0.09167 0.74600
vt 0.00000 0.74600
vt 0.00000 0.37900
vt 0.83330 0.37900
vt 0.83330 0.49600
vt 0.00000 0.49600
vt 0.00000 0.37900
vt 0.83330 0.37900
vt 0.83330 0.49600
vt 0.00000 0.49600
vt 0.00000 0.37900
vt 0.83330 0.37900
vt 0.83330 0.49600
vt 0.00000 0.49600
vt 0.00000 0.37900
vt 0.83330 0.37900
vt 0.83330 0.49600
vt 0.00000 0.49600
vt 0.00000 0.37900
vt 0.09167 0.37900
vt 0.09167 0.49600
vt 0.00000 0.49600
vt 0.00000 0.37900
vt 0.09167 0.37900
vt 0.09167 0.49600
vt 0.00000 0.49600
vt 0.00000 0.12900
vt 0.82845 0.12900
vt 0.82845 0.24600
vt 0.00000 0.24600
vt 0.00000 0.12900
vt 0.82845 0.12900
vt 0.82845 0.24600
vt 0.00000 0.24600
vt 0.00000 0.12900
vt 0.82845 0.12900
vt 0.82845 0.24600
vt 0.00000 0.24600
vt 0.00000 0.12900
vt 0.82845 0.12900
vt 0.82845 0.24600
vt 0.00000 0.24600
vt 0.00000 0.12900
vt 0.09167 0.12900
vt 0.09167 0.24600
vt 0.00000 0.24600
vt 0.00000 0.12900
vt 0.09167 0.12900
vt 0.09167 0.24600
vt 0.00000 0.24600
vt 0.00000 0.87900
vt 0.83026 0.87900
vt 0.83026 0.99600
vt 0.00000 0.99600
vt 0.00000 0.87900
vt 0.83026 0.87900
vt 0.83026 0.99600
vt 0.00000 0.99600
vt 0.00000 0.87900
vt 0.83026 0.87900
vt 0.83026 0.99600
vt 0.00000 0.99600
vt 0.00000 0.87900
vt 0.83026 0.87900
vt 0.83026 0.99600
vt 0.00000 0.99600
vt 0.00000 0.87900
vt 0.09167 0.87900
vt 0.09167 0.99600
vt 0.00000 0.99600
vt 0.00000 0.87900
vt 0.09167 0.87900
vt 0.09167 0.99600
vt 0.00000 0.99600
vt 0.00000 0.62900
vt 0.83034 0.62900
vt 0.83034 0.74600
vt 0.00000 0.74600
vt 0.00000 0.62900
vt 0.83034 0.62900
vt 0.83034 0.74600
vt 0.00000 0.74600
vt 0.00000 0.62900
vt 0.83034 0.62900
vt 0.83034 0.74600
vt 0.00000 0.74600
vt 0.00000 0.62900
vt 0.83034 0.62900
vt 0.83034 0.74600
vt 0.00000 0.74600
vt 0.00000 0.62900
vt 0.09167 0.62900
vt 0.09167 0.74600
vt 0.00000 0.74600
vt 0.00000 0.62900
vt 0.09167 0.62900
vt 0.09167 0.74600
vt 0.00000 0.74600
vt 0.00000 0.37900
vt 0.83203 0.37900
vt 0.83203 0.49600
vt 0.00000 0.49600
vt 0.00000 0.37900
vt 0.83203 0.37900
vt 0.83203 0.49600
vt 0.00000 0.49600
vt 0.00000 0.37900
vt 0.83203 0.37900
vt 0.83203 0.49600
vt 0.00000 0.49600
vt 0.00000 0.37900
vt 0.83203 0.37900
vt 0.83203 0.49600
vt 0.00000 0.49600
vt 0.00000 0.37900
vt 0.09167 0.37900
vt 0.09167 0.49600
vt 0.00000 0.49600
vt 0.00000 0.37900
vt 0.09167 0.37900
vt 0.09167 0.49600
vt 0.00000 0.49600
vt 0.00000 0.00400
vt 0.83663 0.00400
vt 0.83663 0.12100
vt 0.00000 0.12100
vt 0.00000 0.00400
vt 0.83663 0.00400
vt 0.83663 0.12100
vt 0.00000 0.12100
vt 0.00000 0.00400
vt 0.83663 0.00400
vt 0.83663 0.12100
vt 0.00000 0.12100
vt 0.00000 0.00400
vt 0.83663 0.00400
vt 0.83663 0.12100
vt 0.00000 0.12100
vt 0.00000 0.00400
vt 0.09167 0.00400
vt 0.09167 0.12100
vt 0.00000 0.12100
vt 0.00000 0.00400
vt 0.09167 0.00400
vt 0.09167 0.12100
vt 0.00000 0.12100
vt 0.00000 0.50400
vt 0.82988 0.50400
vt 0.82988 0.62100
vt 0.00000 0.62100
vt 0.00000 0.50400
vt 0.82988 0.50400
vt 0.82988 0.62100
vt 0.00000 0.62100
vt 0.00000 0.50400
vt 0.82988 0.50400
vt 0.82988 0.62100
vt 0.00000 0.62100
vt 0.00000 0.50400
vt 0.82988 0.50400
vt 0.82988 0.62100
vt 0.00000 0.62100
vt 0.00000 0.50400
vt 0.09167 0.50400
vt 0.09167 0.62100
vt 0.00000 0.62100
vt 0.00000 0.50400
vt 0.09167 0.50400
vt 0.09167 0.62100
vt 0.00000 0.62100
vt 0.00000 0.25400
vt 0.83714 0.25400
vt 0.83714 0.37100
vt 0.00000 0.37100
vt 0.00000 0.25400
vt 0.83714 0.25400
vt 0.83714 0.37100
vt 0.00000 0.37100
vt 0.00000 0.25400
vt 0.83714 0.25400
vt 0.83714 0.37100
vt 0.00000 0.37100
vt 0.00000 0.25400
vt 0.83714 0.25400
vt 0.83714 0.37100
vt 0.00000 0.37100
vt 0.00000 0.25400
vt 0.09167 0.25400
vt 0.09167 0.37100
vt 0.00000 0.37100
vt 0.00000 0.25400
vt 0.09167 0.25400
vt 0.09167 0.37100
vt 0.00000 0.37100
vt 0.00000 0.87900
vt 0.83343 0.87900
vt 0.83343 0.99600
vt 0.00000 0.99600
vt 0.00000 0.87900
vt 0.83343 0.87900
vt 0.83343 0.99600
vt 0.00000 0.99600
vt 0.00000 0.87900
vt 0.83343 0.87900
vt 0.83343 0.99600
vt 0.00000 0.99600
vt 0.00000 0.87900
vt 0.83343 0.87900
vt 0.83343 0.99600
vt 0.00000 0.99600
vt 0.00000 0.87900
vt 0.09167 0.87900
vt 0.09167 0.99600
vt 0.00000 0.99600
vt 0.00000 0.87900
vt 0.09167 0.87900
vt 0.09167 0.99600
vt 0.00000 0.99600
vt 0.00000 0.75400
vt 0.83473 0.75400
vt 0.83473 0.87100
vt 0.00000 0.87100
vt 0.00000 0.75400
vt 0.83473 0.75400
vt 0.83473 0.87100
vt 0.00000 0.87100
vt 0.00000 0.75400
vt 0.83473 0.75400
vt 0.83473 0.87100
vt 0.00000 0.87100
vt 0.00000 0.75400
vt 0.83473 0.75400
vt 0.83473 0.87100
vt 0.00000 0.87100
vt 0.00000 0.75400
vt 0.09167 0.75400
vt 0.09167 0.87100
vt 0.00000 0.87100
vt 0.00000 0.75400
vt 0.09167 0.75400
vt 0.09167 0.87100
vt 0.00000 0.87100
vt 0.00000 0.37900
vt 0.83575 0.37900
vt 0.83575 0.49600
vt 0.00000 0.49600
vt 0.00000 0.37900
vt 0.83575 0.37900
vt 0.83575 0.49600
vt 0.00000 0.49600
vt 0.00000 0.37900
vt 0.83575 0.37900
vt 0.83575 0.49600
vt 0.00000 0.49600
vt 0.00000 0.37900
vt 0.83575 0.37900
vt 0.83575 0.49600
vt 0.00000 0.49600
vt 0.00000 0.37900
vt 0.09167 0.37900
vt 0.09167 0.49600
vt 0.00000 0.49600
vt 0.00000 0.37900
vt 0.09167 0.37900
vt 0.09167 0.49600
vt 0.00000 0.49600
vt 0.00000 0.00400
vt 0.83374 0.00400
vt 0.83374 0.12100
vt 0.00000 0.12100
vt 0.00000 0.00400
vt 0.83374 0.00400
vt 0.83374 0.12100
vt 0.00000 0.12100
vt 0.00000 0.00400
vt 0.83374 0.00400
vt 0.83374 0.12100
vt 0.00000 0.12100
vt 0.00000 0.00400
vt 0.83374 0.00400
vt 0.83374 0.12100
vt 0.00000 0.12100
vt 0.00000 0.00400
vt 0.09167 0.00400
vt 0.09167 0.12100
vt 0.00000 0.12100
vt 0.00000 0.00400
vt 0.09167 0.00400
vt 0.09167 0.12100
vt 0.00000 0.12100
vt 0.00000 0.50400
vt 0.83341 0.50400
vt 0.83341 0.62100
vt 0.00000 0.62100
vt 0.00000 0.50400
vt 0.83341 0.50400
vt 0.83341 0.62100
vt 0.00000 0.62100
vt 0.00000 0.50400
vt 0.83341 0.50400
vt 0.83341 0.62100
vt 0.00000 0.62100
vt 0.00000 0.50400
vt 0.83341 0.50400
vt 0.83341 0.62100
vt 0.00000 0.62100
vt 0.00000 0.50400
vt 0.09167 0.50400
vt 0.09167 0.62100
vt 0.00000 0.62100
vt 0.00000 0.50400
vt 0.09167 0.50400
vt 0.09167 0.62100
vt 0.00000 0.62100
vt 0.00000 0.75400
vt 0.83195 0.75400
vt 0.83195 0.87100
vt 0.00000 0.87100
vt 0.00000 0.75400
vt 0.83195 0.75400
vt 0.83195 0.87100
vt 0.00000 0.87100
vt 0.00000 0.75400
vt 0.83195 0.75400
vt 0.83195 0.87100
vt 0.00000 0.87100
vt 0.00000 0.75400
vt 0.83195 0.75400
vt 0.83195 0.87100
vt 0.00000 0.87100
vt 0.00000 0.75400
vt 0.09167 0.75400
vt 0.09167 0.87100
vt 0.00000 0.87100
vt 0.00000 0.75400
vt 0.09167 0.75400
vt 0.09167 0.87100
vt 0.00000 0.87100
vt 0.00000 0.00400
vt 0.83432 0.00400
vt 0.83432 0.12100
vt 0.00000 0.12100
vt 0.00000 0.00400
vt 0.83432 0.00400
vt 0.83432 0.12100
vt 0.00000 0.12100
vt 0.00000 0.00400
vt 0.83432 0.00400
vt 0.83432 0.12100
vt 0.00000 0.12100
vt 0.00000 0.00400
vt 0.83432 0.00400
vt 0.83432 0.12100
vt 0.00000 0.12100
vt 0.00000 0.00400
vt 0.09167 0.00400
vt 0.09167 0.12100
vt 0.00000 0.12100
vt 0.00000 0.00400
vt 0.09167 0.00400
vt 0.09167 0.12100
vt 0.00000 0.12100
vt 0.00000 0.00400
vt 0.83221 0.00400
vt 0.83221 0.12100
vt 0.00000 0.12100
vt 0.00000 0.00400
vt 0.83221 0.00400
vt 0.83221 0.12100
vt 0.00000 0.12100
vt 0.00000 0.00400
vt 0.83221 0.00400
vt 0.83221 0.12100
vt 0.00000 0.12100
vt 0.00000 0.00400
vt 0.83221 0.00400
vt 0.83221 0.12100
vt 0.00000 0.12100
vt 0.00000 0.00400
vt 0.09167 0.00400
vt 0.09167 0.12100
vt 0.00000 0.12100
vt 0.00000 0.00400
vt 0.09167 0.00400
vt 0.09167 0.12100
vt 0.00000 0.12100
vt 0.00000 0.12900
vt 0.83156 0.12900
vt 0.83156 0.24600
vt 0.00000 0.24600
vt 0.00000 0.12900
vt 0.83156 0.12900
vt 0.83156 0.24600
vt 0.00000 0.24600
vt 0.00000 0.12900
vt 0.83156 0.12900
vt 0.83156 0.24600
vt 0.00000 0.24600
vt 0.00000 0.12900
vt 0.83156 0.12900
vt 0.83156 0.24600
vt 0.00000 0.24600
vt 0.00000 0.12900
vt 0.09167 0.12900
vt 0.09167 0.24600
vt 0.00000 0.24600
vt 0.00000 0.12900
vt 0.09167 0.12900
vt 0.09167 0.24600
vt 0.00000 0.24600
vt 0.00000 0.12900
vt 0.83650 0.12900
vt 0.83650 0.24600
vt 0.00000 0.24600
vt 0.00000 0.12900
vt 0.83650 0.12900
vt 0.83650 0.24600
vt 0.00000 0.24600
vt 0.00000 0.12900
vt 0.83650 0.12900
vt 0.83650 0.24600
vt 0.00000 0.24600
vt 0.00000 0.12900
vt 0.83650 0.12900
vt 0.83650 0.24600
vt 0.00000 0.24600
vt 0.00000 0.12900
vt 0.09167 0.12900
vt 0.09167 0.24600
vt 0.00000 0.24600
vt 0.00000 0.12900
vt 0.09167 0.12900
vt 0.09167 0.24600
vt 0.00000 0.24600
vt 0.00000 0.50400
vt 0.83213 0.50400
vt 0.83213 0.62100
vt 0.00000 0.62100
vt 0.00000 0.50400
vt 0.83213 0.50400
vt 0.83213 0.62100
vt 0.00000 0.62100
vt 0.00000 0.50400
vt 0.83213 0.50400
vt 0.83213 0.62100
vt 0.00000 0.62100
vt 0.00000 0.50400
vt 0.83213 0.50400
vt 0.83213 0.62100
vt 0.00000 0.62100
vt 0.00000 0.50400
vt 0.09167 0.50400
vt 0.09167 0.62100
vt 0.00000 0.62100
vt 0.00000 0.50400
vt 0.09167 0.50400
vt 0.09167 0.62100
vt 0.00000 0.62100
vt 0.00000 0.87900
vt 0.83423 0.87900
vt 0.83423 0.99600
vt 0.00000 0.99600
vt 0.00000 0.87900
vt 0.83423 0.87900
vt 0.83423 0.99600
vt 0.00000 0.99600
vt 0.00000 0.87900
vt 0.83423 0.87900
vt 0.83423 0.99600
vt 0.00000 0.99600
vt 0.00000 0.87900
vt 0.83423 0.87900
vt 0.83423 0.99600
vt 0.00000 0.99600
vt 0.00000 0.87900
vt 0.09167 0.87900
vt 0.09167 0.99600
vt 0.00000 0.99600
vt 0.00000 0.87900
vt 0.09167 0.87900
vt 0.09167 0.99600
vt 0.00000 0.99600
vt 0.00000 0.37900
vt 0.83438 0.37900
vt 0.83438 0.49600
vt 0.00000 0.49600
vt 0.00000 0.37900
vt 0.83438 0.37900
vt 0.83438 0.49600
vt 0.00000 0.49600
vt 0.00000 0.37900
vt 0.83438 0.37900
vt 0.83438 0.49600
vt 0.00000 0.49600
vt 0.00000 0.37900
vt 0.83438 0.37900
vt 0.83438 0.49600
vt 0.00000 0.49600
vt 0.00000 0.37900
vt 0.09167 0.37900
vt 0.09167 0.49600
vt 0.00000 0.49600
vt 0.00000 0.37900
vt 0.09167 0.37900
vt 0.09167 0.49600
vt 0.00000 0.49600
vt 0.00000 0.62900
vt 0.83510 0.62900
vt 0.83510 0.74600
vt 0.00000 0.74600
vt 0.00000 0.62900
vt 0.83510 0.62900
vt 0.83510 0.74600
vt 0.00000 0.74600
vt 0.00000 0.62900
vt 0.83510 0.62900
vt 0.83510 0.74600
vt 0.00000 0.74600
vt 0.00000 0.62900
vt 0.83510 0.62900
vt 0.83510 0.74600
vt 0.00000 0.74600
vt 0.00000 0.62900
vt 0.09167 0.62900
vt 0.09167 0.74600
vt 0.00000 0.74600
vt 0.00000 0.62900
vt 0.09167 0.62900
vt 0.09167 0.74600
vt 0.00000 0.74600
vt 0.00000 0.50400
vt 0.82984 0.50400
vt 0.82984 0.62100
vt 0.00000 0.62100
vt 0.00000 0.50400
vt 0.82984 0.50400
vt 0.82984 0.62100
vt 0.00000 0.62100
vt 0.00000 0.50400
vt 0.82984 0.50400
vt 0.82984 0.62100
vt 0.00000 0.62100
vt 0.00000 0.50400
vt 0.82984 0.50400
vt 0.82984 0.62100
vt 0.00000 0.62100
vt 0.00000 0.50400
vt 0.09167 0.50400
vt 0.09167 0.62100
vt 0.00000 0.62100
vt 0.00000 0.50400
vt 0.09167 0.50400
vt 0.09167 0.62100
vt 0.00000 0.62100
vt 0.00000 0.37900
vt 0.83073 0.37900
vt 0.83073 0.49600
vt 0.00000 0.49600
vt 0.00000 0.37900
vt 0.83073 0.37900
vt 0.83073 0.49600
vt 0.00000 0.49600
vt 0.00000 0.37900
vt 0.83073 0.37900
vt 0.83073 0.49600
vt 0.00000 0.49600
vt 0.00000 0.37900
vt 0.83073 0.37900
vt 0.83073 0.49600
vt 0.00000 0.49600
vt 0.00000 0.37900
vt 0.09167 0.37900
vt 0.09167 0.49600
vt 0.00000 0.49600
vt 0.00000 0.37900
vt 0.09167 0.37900
vt 0.09167 0.49600
vt 0.00000 0.49600
vt 0.00000 0.75400
vt 0.83236 0.75400
vt 0.83236 0.87100
vt 0.00000 0.87100
vt 0.00000 0.75400
vt 0.83236 0.75400
vt 0.83236 0.87100
vt 0.00000 0.87100
vt 0.00000 0.75400
vt 0.83236 0.75400
vt 0.83236 0.87100
vt 0.00000 0.87100
vt 0.00000 0.75400
vt 0.83236 0.75400
vt 0.83236 0.87100
vt 0.00000 0.87100
vt 0.00000 0.75400
vt 0.09167 0.75400
vt 0.09167 0.87100
vt 0.00000 0.87100
vt 0.00000 0.75400
vt 0.09167 0.75400
vt 0.09167 0.87100
vt 0.00000 0.87100
vt 0.00000 0.00400
vt 0.83801 0.00400
vt 0.83801 0.12100
vt 0.00000 0.12100
vt 0.00000 0.00400
vt 0.83801 0.00400
vt 0.83801 0.12100
vt 0.00000 0.12100
vt 0.00000 0.00400
vt 0.83801 0.00400
vt 0.83801 0.12100
vt 0.00000 0.12100
vt 0.00000 0.00400
vt 0.83801 0.00400
vt 0.83801 0.12100
vt 0.00000 0.12100
vt 0.00000 0.00400
vt 0.09167 0.00400
vt 0.09167 0.12100
vt 0.00000 0.12100
vt 0.00000 0.00400
vt 0.09167 0.00400
vt 0.09167 0.12100
vt 0.00000 0.12100
vt 0.00000 0.00400
vt 0.83048 0.00400
vt 0.83048 0.12100
vt 0.00000 0.12100
vt 0.00000 0.00400
vt 0.83048 0.00400
vt 0.83048 0.12100
vt 0.00000 0.12100
vt 0.00000 0.00400
vt 0.83048 0.00400
vt 0.83048 0.12100
vt 0.00000 0.12100
vt 0.00000 0.00400
vt 0.83048 0.00400
vt 0.83048 0.12100
vt 0.00000 0.12100
vt 0.00000 0.00400
vt 0.09167 0.00400
vt 0.09167 0.12100
vt 0.00000 0.12100
vt 0.00000 0.00400
vt 0.09167 0.00400
vt 0.09167 0.12100
vt 0.00000 0.12100
vt 0.00000 0.37900
vt 0.05333 0.37900
vt 0.05333 0.49600
vt 0.00000 0.49600
vt 0.00000 0.37900
vt 0.05333 0.37900
vt 0.05333 0.49600
vt 0.00000 0.49600
vt 0.00000 0.37900
vt 0.05333 0.37900
vt 0.05333 0.49600
vt 0.00000 0.49600
vt 0.00000 0.37900
vt 0.05333 0.37900
vt 0.05333 0.49600
vt 0.00000 0.49600
vt 0.00000 0.37900
vt 3.93333 0.37900
vt 3.93333 0.49600
vt 0.00000 0.49600
vt 0.00000 0.37900
vt 3.93333 0.37900
vt 3.93333 0.49600
vt 0.00000 0.49600
vt 0.00000 0.37900
vt 0.05333 0.37900
vt 0.05333 0.49600
vt 0.00000 0.49600
vt 0.00000 0.37900
vt 0.05333 0.37900
vt 0.05333 0.49600
vt 0.00000 0.49600
vt 0.00000 0.37900
vt 0.05333 0.37900
vt 0.05333 0.49600
vt 0.00000 0.49600
vt 0.00000 0.37900
vt 0.05333 0.37900
vt 0.05333 0.49600
vt 0.00000 0.49600
vt 0.00000 0.37900
vt 3.93333 0.37900
vt 3.93333 0.49600
vt 0.00000 0.49600
vt 0.00000 0.37900
vt 3.93333 0.37900
vt 3.93333 0.49600
vt 0.00000 0.49600
vt 0.00000 0.75400
vt 0.18000 0.75400
vt 0.18000 0.87100
vt 0.00000 0.87100
vt 0.00000 0.75400
vt 0.18000 0.75400
vt 0.18000 0.87100
vt 0.00000 0.87100
vt 0.00000 0.75400
vt 0.18000 0.75400
vt 0.18000 0.87100
vt 0.00000 0.87100
vt 0.00000 0.75400
vt 0.18000 0.75400
vt 0.18000 0.87100
vt 0.00000 0.87100
vt 0.00000 0.75400
vt 0.18000 0.75400
vt 0.18000 0.87100
vt 0.00000 0.87100
vt 0.00000 0.75400
vt 0.18000 0.75400
vt 0.18000 0.87100
vt 0.00000 0.87100
vt 0.00000 0.75400
vt 0.18000 0.75400
vt 0.18000 0.87100
vt 0.00000 0.87100
vt 0.00000 0.75400
vt 0.18000 0.75400
vt 0.18000 0.87100
vt 0.00000 0.87100
vt 0.00000 0.75400
vt 0.18000 0.75400
vt 0.18000 0.87100
vt 0.00000 0.87100
vt 0.00000 0.75400
vt 0.18000 0.75400
vt 0.18000 0.87100
vt 0.00000 0.87100
vt 0.00000 0.75400
vt 0.18000 0.75400
vt 0.18000 0.87100
vt 0.00000 0.87100
vt 0.00000 0.75400
vt 0.18000 0.75400
vt 0.18000 0.87100
vt 0.00000 0.87100
vt 0.00000 0.75400
vt 0.18000 0.75400
vt 0.18000 0.87100
vt 0.00000 0.87100
vt 0.00000 0.75400
vt 0.18000 0.75400
vt 0.18000 0.87100
vt 0.00000 0.87100
vt 0.00000 0.75400
vt 0.18000 0.75400
vt 0.18000 0.87100
vt 0.00000 0.87100
vt 0.00000 0.75400
vt 0.18000 0.75400
vt 0.18000 0.87100
vt 0.00000 0.87100
vt 0.00000 0.75400
vt 0.18000 0.75400
vt 0.18000 0.87100
vt 0.00000 0.87100
vt 0.00000 0.75400
vt 0.18000 0.75400
vt 0.18000 0.87100
vt 0.00000 0.87100
vt 0.00000 0.75400
vt 0.18000 0.75400
vt 0.18000 0.87100
vt 0.00000 0.87100
vt 0.00000 0.75400
vt 0.18000 0.75400
vt 0.18000 0.87100
vt 0.00000 0.87100
vt 0.00000 0.75400
vt 0.18000 0.75400
vt 0.18000 0.87100
vt 0.00000 0.87100
vt 0.00000 0.75400
vt 0.18000 0.75400
vt 0.18000 0.87100
vt 0.00000 0.87100
vt 0.00000 0.75400
vt 0.18000 0.75400
vt 0.18000 0.87100
vt 0.00000 0.87100
vt 0.00000 0.75400
vt 0.18000 0.75400
vt 0.18000 0.87100
vt 0.00000 0.87100
vt 0.00000 0.75400
vt 0.18000 0.75400
vt 0.18000 0.87100
vt 0.00000 0.87100
vt 0.00000 0.75400
vt 0.18000 0.75400
vt 0.18000 0.87100
vt 0.00000 0.87100
vt 0.00000 0.75400
vt 0.18000 0.75400
vt 0.18000 0.87100
vt 0.00000 0.87100
vt 0.00000 0.75400
vt 0.18000 0.75400
vt 0.18000 0.87100
vt 0.00000 0.87100
vt 0.00000 0.75400
vt 0.18000 0.75400
vt 0.18000 0.87100
vt 0.00000 0.87100
vt 0.00000 0.75400
vt 0.18000 0.75400
vt 0.18000 0.87100
vt 0.00000 0.87100
vt 0.00000 0.75400
vt 0.18000 0.75400
vt 0.18000 0.87100
vt 0.00000 0.87100
vt 0.00000 0.75400
vt 0.18000 0.75400
vt 0.18000 0.87100
vt 0.00000 0.87100
vt 0.00000 0.75400
vt 0.18000 0.75400
vt 0.18000 0.87100
vt 0.00000 0.87100
vt 0.00000 0.75400
vt 0.18000 0.75400
vt 0.18000 0.87100
vt 0.00000 0.87100
vt 0.00000 0.75400
vt 0.18000 0.75400
vt 0.18000 0.87100
vt 0.00000 0.87100
vt 0.00000 0.75400
vt 0.18000 0.75400
vt 0.18000 0.87100
vt 0.00000 0.87100
vt 0.00000 0.75400
vt 0.18000 0.75400
vt 0.18000 0.87100
vt 0.00000 0.87100
vt 0.00000 0.75400
vt 0.18000 0.75400
vt 0.18000 0.87100
vt 0.00000 0.87100
vt 0.00000 0.75400
vt 0.18000 0.75400
vt 0.18000 0.87100
vt 0.00000 0.87100
vt 0.00000 0.75400
vt 0.18000 0.75400
vt 0.18000 0.87100
vt 0.00000 0.87100
vt 0.00000 0.75400
vt 0.18000 0.75400
vt 0.18000 0.87100
vt 0.00000 0.87100
vt 0.00000 0.75400
vt 0.18000 0.75400
vt 0.18000 0.87100
vt 0.00000 0.87100
vt 0.00000 0.75400
vt 0.18000 0.75400
vt 0.18000 0.87100
vt 0.00000 0.87100
vt 0.00000 0.75400
vt 0.18000 0.75400
vt 0.18000 0.87100
vt 0.00000 0.87100
vt 0.00000 0.75400
vt 0.18000 0.75400
vt 0.18000 0.87100
vt 0.00000 0.87100
vt 0.00000 0.75400
vt 0.18000 0.75400
vt 0.18000 0.87100
vt 0.00000 0.87100
vt 0.00000 0.75400
vt 0.18000 0.75400
vt 0.18000 0.87100
vt 0.00000 0.87100
vt 0.00000 0.75400
vt 0.18000 0.75400
vt 0.18000 0.87100
vt 0.00000 0.87100
vt 0.00000 0.75400
vt 0.18000 0.75400
vt 0.18000 0.87100
vt 0.00000 0.87100
vt 0.00000 0.75400
vt 0.18000 0.75400
vt 0.18000 0.87100
vt 0.00000 0.87100
vt 0.00000 0.75400
vt 0.18000 0.75400
vt 0.18000 0.87100
vt 0.00000 0.87100
vt 0.00000 0.75400
vt 0.18000 0.75400
vt 0.18000 0.87100
vt 0.00000 0.87100
vt 0.00000 0.75400
vt 0.18000 0.75400
vt 0.18000 0.87100
vt 0.00000 0.87100
vt 0.00000 0.75400
vt 0.18000 0.75400
vt 0.18000 0.87100
vt 0.00000 0.87100
vt 0.00000 0.75400
vt 0.18000 0.75400
vt 0.18000 0.87100
vt 0.00000 0.87100
vt 0.00000 0.75400
vt 0.18000 0.75400
vt 0.18000 0.87100
vt 0.00000 0.87100
vt 0.00000 0.75400
vt 0.18000 0.75400
vt 0.18000 0.87100
vt 0.00000 0.87100
vt 0.00000 0.75400
vt 0.18000 0.75400
vt 0.18000 0.87100
vt 0.00000 0.87100
vt 0.00000 0.75400
vt 0.18000 0.75400
vt 0.18000 0.87100
vt 0.00000 0.87100
vt 0.00000 0.75400
vt 0.18000 0.75400
vt 0.18000 0.87100
vt 0.00000 0.87100
vt 0.00000 0.75400
vt 0.18000 0.75400
vt 0.18000 0.87100
vt 0.00000 0.87100
vt 0.00000 0.75400
vt 0.18000 0.75400
vt 0.18000 0.87100
vt 0.00000 0.87100
vt 0.00000 0.75400
vt 0.18000 0.75400
vt 0.18000 0.87100
vt 0.00000 0.87100
vt 0.00000 0.75400
vt 0.18000 0.75400
vt 0.18000 0.87100
vt 0.00000 0.87100
vt 0.00000 0.75400
vt 0.18000 0.75400
vt 0.18000 0.87100
vt 0.00000 0.87100
vt 0.00000 0.75400
vt 0.18000 0.75400
vt 0.18000 0.87100
vt 0.00000 0.87100
vt 0.00000 0.75400
vt 0.18000 0.75400
vt 0.18000 0.87100
vt 0.00000 0.87100
vt 0.00000 0.75400
vt 0.18000 0.75400
vt 0.18000 0.87100
vt 0.00000 0.87100
vt 0.00000 0.75400
vt 0.18000 0.75400
vt 0.18000 0.87100
vt 0.00000 0.87100
vt 0.00000 0.75400
vt 0.18000 0.75400
vt 0.18000 0.87100
vt 0.00000 0.87100
vt 0.00000 0.75400
vt 0.18000 0.75400
vt 0.18000 0.87100
vt 0.00000 0.87100
vt 0.00000 0.75400
vt 0.18000 0.75400
vt 0.18000 0.87100
vt 0.00000 0.87100
vt 0.00000 0.62900
vt 0.25000 0.62900
vt 0.25000 0.74600
vt 0.00000 0.74600
vt 0.00000 0.62900
vt 0.25000 0.62900
vt 0.25000 0.74600
vt 0.00000 0.74600
vt 0.00000 0.62900
vt 0.25000 0.62900
vt 0.25000 0.74600
vt 0.00000 0.74600
vt 0.00000 0.62900
vt 0.25000 0.62900
vt 0.25000 0.74600
vt 0.00000 0.74600
vt 0.00000 0.62900
vt 0.25000 0.62900
vt 0.25000 0.74600
vt 0.00000 0.74600
vt 0.00000 0.62900
vt 0.25000 0.62900
vt 0.25000 0.74600
vt 0.00000 0.74600
f 3/3 2/2 1/1
f 4/4 3/3 1/1
f 6/7 7/6 8/5
f 5/8 6/7 8/5
f 2/11 6/10 5/9
f 1/12 2/11 5/9
f 4/15 8/14 7/13
f 3/16 4/15 7/13
f 3/19 7/18 6/17
f 2/20 3/19 6/17
f 1/23 5/22 8/21
f 4/24 1/23 8/21
f 11/27 10/26 9/25
f 12/28 11/27 9/25
f 14/31 15/30 16/29
f 13/32 14/31 16/29
f 10/35 14/34 13/33
f 9/36 10/35 13/33
f 12/39 16/38 15/37
f 11/40 12/39 15/37
f 11/43 15/42 14/41
f 10/44 11/43 14/41
f 9/47 13/46 16/45
f 12/48 9/47 16/45
f 19/51 18/50 17/49
f 20/52 19/51 17/49
f 22/55 23/54 24/53
f 21/56 22/55 24/53
f 18/59 22/58 21/57
f 17/60 18/59 21/57
f 20/63 24/62 23/61
f 19/64 20/63 23/61
f 19/67 23/66 22/65
f 18/68 19/67 22/65
f 17/71 21/70 24/69
f 20/72 17/71 24/69
f 27/75 26/74 25/73
f 28/76 27/75 25/73
f 30/79 31/78 32/77
f 29/80 30/79 32/77
f 26/83 30/82 29/81
f 25/84 26/83 29/81
f 28/87 32/86 31/85
f 27/88 28/87 31/85
f 27/91 31/90 30/89
f 26/92 27/91 30/89
f 25/95 29/94 32/93
f 28/96 25/95 32/93
f 35/99 34/98 33/97
f 36/100 35/99 33/97
f 38/103 39/102 40/101
f 37/104 38/103 40/101
f 34/107 38/106 37/105
f 33/108 34/107 37/105
f 36/111 40/110 39/109
f 35/112 36/111 39/109
f 35/115 39/114 38/113
f 34/116 35/115 38/113
f 33/119 37/118 40/117
f 36/120 33/119 40/117
f 43/123 42/122 41/121
f 44/124 43/123 41/121
f 46/127 47/126 48/125
f 45/128 46/127 48/125
f 42/131 46/130 45/129
f 41/132 42/131 45/129
f 44/135 48/134 47/133
f 43/136 44/135 47/133
f 43/139 47/138 46/137
f 42/140 43/139 46/137
f 41/143 45/142 48/141
f 44/144 41/143 48/141
f 51/147 50/146 49/145
f 52/148 51/147 49/145
f 54/151 55/150 56/149
f 53/152 54/151 56/149
f 50/155 54/154 53/153
f 49/156 50/155 53/153
f 52/159 56/158 55/157
f 51/160 52/159 55/157
f 51/163 55/162 54/161
f 50/164 51/163 54/161
f 49/167 53/166 56/165
f 52/168 49/167 56/165
f 59/171 58/170 57/169
f 60/172 59/171 57/169
f 62/175 63/174 64/173
f 61/176 62/175 64/173
f 58/179 62/178 61/177
f 57/180 58/179 61/177
f 60/183 64/182 63/181
f 59/184 60/183 63/181
f 59/187 63/186 62/185
f 58/188 59/187 62/185
f 57/191 61/190 64/189
f 60/192 57/191 64/189
f 67/195 66/194 65/193
f 68/196 67/195 65/193
f 70/199 71/198 72/197
f 69/200 70/199 72/197
f 66/203 70/202 69/201
f 65/204 66/203 69/201
f 68/207 72/206 71/205
f 67/208 68/207 71/205
f 67/211 71/210 70/209
f 66/212 67/211 70/209
f 65/215 69/214 72/213
f 68/216 65/215 72/213
f 75/219 74/218 73/217
f 76/220 75/219 73/217
f 78/223 79/222 80/221
f 77/224 78/223 80/221
f 74/227 78/226 77/225
f 73/228 74/227 77/225
f 76/231 80/230 79/229
f 75/232 76/231 79/229
f 75/235 79/234 78/233
f 74/236 75/235 78/233
f 73/239 77/238 80/237
f 76/240 73/239 80/237
f 83/243 82/242 81/241
f 84/244 83/243 81/241
f 86/247 87/246 88/245
f 85/248 86/247 88/245
f 82/251 86/250 85/249
f 81/252 82/251 85/249
f 84/255 88/254 87/253
f 83/256 84/255 87/253
f 83/259 87/258 86/257
f 82/260 83/259 86/257
f 81/263 85/262 88/261
f 84/264 81/263 88/261
f 91/267 90/266 89/265
f 92/268 91/267 89/265
f 94/271 95/270 96/269
f 93/272 94/271 96/269
f 90/275 94/274 93/273
f 89/276 90/275 93/273
f 92/279 96/278 95/277
f 91/280 92/279 95/277
f 91/283 95/282 94/281
f 90/284 91/283 94/281
f 89/287 93/286 96/285
f 92/288 89/287 96/285
f 99/291 98/290 97/289
f 100/292 99/291 97/289
f 102/295 103/294 104/293
f 101/296 102/295 104/293
f 98/299 102/298 101/297
f 97/300 98/299 101/297
f 100/303 104/302 103/301
f 99/304 100/303 103/301
f 99/307 103/306 102/305
f 98/308 99/307 102/305
f 97/311 101/310 104/309
f 100/312 97/311 104/309
f 107/315 106/314 105/313
f 108/316 107/315 105/313
f 110/319 111/318 112/317
f 109/320 110/319 112/317
f 106/323 110/322 109/321
f 105/324 106/323 109/321
f 108/327 112/326 111/325
f 107/328 108/327 111/325
f 107/331 111/330 110/329
f 106/332 107/331 110/329
f 105/335 109/334 112/333
f 108/336 105/335 112/333
f 115/339 114/338 113/337
f 116/340 115/339 113/337
f 118/343 119/342 120/341
f 117/344 118/343 120/341
f 114/347 118/346 117/345
f 113/348 114/347 117/345
f 116/351 120/350 119/349
f 115/352 116/351 119/349
f 115/355 119/354 118/353
f 114/356 115/355 118/353
f 113/359 117/358 120/357
f 116/360 113/359 120/357
f 123/363 122/362 121/361
f 124/364 123/363 121/361
f 126/367 127/366 128/365
f 125/368 126/367 128/365
f 122/371 126/370 125/369
f 121/372 122/371 125/369
f 124/375 128/374 127/373
f 123/376 124/375 127/373
f 123/379 127/378 126/377
f 122/380 123/379 126/377
f 121/383 125/382 128/381
f 124/384 121/383 128/381
f 131/387 130/386 129/385
f 132/388 131/387 129/385
f 134/391 135/390 136/389
f 133/392 134/391 136/389
f 130/395 134/394 133/393
f 129/396 130/395 133/393
f 132/399 136/398 135/397
f 131/400 132/399 135/397
f 131/403 135/402 134/401
f 130/404 131/403 134/401
f 129/407 133/406 136/405
f 132/408 129/407 136/405
f 139/411 138/410 137/409
f 140/412 139/411 137/409
f 142/415 143/414 144/413
f 141/416 142/415 144/413
f 138/419 142/418 141/417
f 137/420 138/419 141/417
f 140/423 144/422 143/421
f 139/424 140/423 143/421
f 139/427 143/426 142/425
f 138/428 139/427 142/425
f 137/431 141/430 144/429
f 140/432 137/431 144/429
f 147/435 146/434 145/433
f 148/436 147/435 145/433
f 150/439 151/438 152/437
f 149/440 150/439 152/437
f 146/443 150/442 149/441
f 145/444 146/443 149/441
f 148/447 152/446 151/445
f 147/448 148/447 151/445
f 147/451 151/450 150/449
f 146/452 147/451 150/449
f 145/455 149/454 152/453
f 148/456 145/455 152/453
f 155/459 154/458 153/457
f 156/460 155/459 153/457
f 158/463 159/462 160/461
f 157/464 158/463 160/461
f 154/467 158/466 157/465
f 153/468 154/467 157/465
f 156/471 160/470 159/469
f 155/472 156/471 159/469
f 155/475 159/474 158/473
f 154/476 155/475 158/473
f 153/479 157/478 160/477
f 156/480 153/479 160/477
f 163/483 162/482 161/481
f 164/484 163/483 161/481
f 166/487 167/486 168/485
f 165/488 166/487 168/485
f 162/491 166/490 165/489
f 161/492 162/491 165/489
f 164/495 168/494 167/493
f 163/496 164/495 167/493
f 163/499 167/498 166/497
f 162/500 163/499 166/497
f 161/503 165/502 168/501
f 164/504 161/503 168/501
f 171/507 170/506 169/505
f 172/508 171/507 169/505
f 174/511 175/510 176/509
f 173/512 174/511 176/509
f 170/515 174/514 173/513
f 169/516 170/515 173/513
f 172/519 176/518 175/517
f 171/520 172/519 175/517
f 171/523 175/522 174/521
f 170/524 171/523 174/521
f 169/527 173/526 176/525
f 172/528 169/527 176/525
f 179/531 178/530 177/529
f 180/532 179/531 177/529
f 182/535 183/534 184/533
f 181/536 182/535 184/533
f 178/539 182/538 181/537
f 177/540 178/539 181/537
f 180/543 184/542 183/541
f 179/544 180/543 183/541
f 179/547 183/546 182/545
f 178/548 179/547 182/545
f 177/551 181/550 184/549
f 180/552 177/551 184/549
f 187/555 186/554 185/553
f 188/556 187/555 185/553
f 190/559 191/558 192/557
f 189/560 190/559 192/557
f 186/563 190/562 189/561
f 185/564 186/563 189/561
f 188/567 192/566 191/565
f 187/568 188/567 191/565
f 187/571 191/570 190/569
f 186/572 187/571 190/569
f 185/575 189/574 192/573
f 188/576 185/575 192/573
f 195/579 194/578 193/577
f 196/580 195/579 193/577
f 198/583 199/582 200/581
f 197/584 198/583 200/581
f 194/587 198/586 197/585
f 193/588 194/587 197/585
f 196/591 200/590 199/589
f 195/592 196/591 199/589
f 195/595 199/594 198/593
f 194/596 195/595 198/593
f 193/599 197/598 200/597
f 196/600 193/599 200/597
f 203/603 202/602 201/601
f 204/604 203/603 201/601
f 206/607 207/606 208/605
f 205/608 206/607 208/605
f 202/611 206/610 205/609
f 201/612 202/611 205/609
f 204/615 208/614 207/613
f 203/616 204/615 207/613
f 203/619 207/618 206/617
f 202/620 203/619 206/617
f 201/623 205/622 208/621
f 204/624 201/623 208/621
f 211/627 210/626 209/625
f 212/628 211/627 209/625
f 214/631 215/630 216/629
f 213/632 214/631 216/629
f 210/635 214/634 213/633
f 209/636 210/635 213/633
f 212/639 216/638 215/637
f 211/640 212/639 215/637
f 211/643 215/642 214/641
f 210/644 211/643 214/641
f 209/647 213/646 216/645
f 212/648 209/647 216/645
f 219/651 218/650 217/649
f 220/652 219/651 217/649
f 222/655 223/654 224/653
f 221/656 222/655 224/653
f 218/659 222/658 221/657
f 217/660 218/659 221/657
f 220/663 224/662 223/661
f 219/664 220/663 223/661
f 219/667 223/666 222/665
f 218/668 219/667 222/665
f 217/671 221/670 224/669
f 220/672 217/671 224/669
f 227/675 226/674 225/673
f 228/676 227/675 225/673
f 230/679 231/678 232/677
f 229/680 230/679 232/677
f 226/683 230/682 229/681
f 225/684 226/683 229/681
f 228/687 232/686 231/685
f 227/688 228/687 231/685
f 227/691 231/690 230/689
f 226/692 227/691 230/689
f 225/695 229/694 232/693
f 228/696 225/695 232/693
f 235/699 234/698 233/697
f 236/700 235/699 233/697
f 238/703 239/702 240/701
f 237/704 238/703 240/701
f 234/707 238/706 237/705
f 233/708 234/707 237/705
f 236/711 240/710 239/709
f 235/712 236/711 239/709
f 235/715 239/714 238/713
f 234/716 235/715 238/713
f 233/719 237/718 240/717
f 236/720 233/719 240/717
f 243/723 242/722 241/721
f 244/724 243/723 241/721
f 246/727 247/726 248/725
f 245/728 246/727 248/725
f 242/731 246/730 245/729
f 241/732 242/731 245/729
f 244/735 248/734 247/733
f 243/736 244/735 247/733
f 243/739 247/738 246/737
f 242/740 243/739 246/737
f 241/743 245/742 248/741
f 244/744 241/743 248/741
f 251/747 250/746 249/745
f 252/748 251/747 249/745
f 254/751 255/750 256/749
f 253/752 254/751 256/749
f 250/755 254/754 253/753
f 249/756 250/755 253/753
f 252/759 256/758 255/757
f 251/760 252/759 255/757
f 251/763 255/762 254/761
f 250/764 251/763 254/761
f 249/767 253/766 256/765
f 252/768 249/767 256/765
f 259/771 258/770 257/769
f 260/772 259/771 257/769
f 262/775 263/774 264/773
f 261/776 262/775 264/773
f 258/779 262/778 261/777
f 257/780 258/779 261/777
f 260/783 264/782 263/781
f 259/784 260/783 263/781
f 259/787 263/786 262/785
f 258/788 259/787 262/785
f 257/791 261/790 264/789
f 260/792 257/791 264/789
f 267/795 266/794 265/793
f 268/796 267/795 265/793
f 270/799 271/798 272/797
f 269/800 270/799 272/797
f 266/803 270/802 269/801
f 265/804 266/803 269/801
f 268/807 272/806 271/805
f 267/808 268/807 271/805
f 267/811 271/810 270/809
f 266/812 267/811 270/809
f 265/815 269/814 272/813
f 268/816 265/815 272/813
f 275/819 274/818 273/817
f 276/820 275/819 273/817
f 278/823 279/822 280/821
f 277/824 278/823 280/821
f 274/827 278/826 277/825
f 273/828 274/827 277/825
f 276/831 280/830 279/829
f 275/832 276/831 279/829
f 275/835 279/834 278/833
f 274/836 275/835 278/833
f 273/839 277/838 280/837
f 276/840 273/839 280/837
f 283/843 282/842 281/841
f 284/844 283/843 281/841
f 286/847 287/846 288/845
f 285/848 286/847 288/845
f 282/851 286/850 285/849
f 281/852 282/851 285/849
f 284/855 288/854 287/853
f 283/856 284/855 287/853
f 283/859 287/858 286/857
f 282/860 283/859 286/857
f 281/863 285/862 288/861
f 284/864 281/863 288/861
f 291/867 290/866 289/865
f 292/868 291/867 289/865
f 294/871 295/870 296/869
f 293/872 294/871 296/869
f 290/875 294/874 293/873
f 289/876 290/875 293/873
f 292/879 296/878 295/877
f 291/880 292/879 295/877
f 291/883 295/882 294/881
f 290/884 291/883 294/881
f 289/887 293/886 296/885
f 292/888 289/887 296/885
f 299/891 298/890 297/889
f 300/892 299/891 297/889
f 302/895 303/894 304/893
f 301/896 302/895 304/893
f 298/899 302/898 301/897
f 297/900 298/899 301/897
f 300/903 304/902 303/901
f 299/904 300/903 303/901
f 299/907 303/906 302/905
f 298/908 299/907 302/905
f 297/911 301/910 304/909
f 300/912 297/911 304/909
f 307/915 306/914 305/913
f 308/916 307/915 305/913
f 310/919 311/918 312/917
f 309/920 310/919 312/917
f 306/923 310/922 309/921
f 305/924 306/923 309/921
f 308/927 312/926 311/925
f 307/928 308/927 311/925
f 307/931 311/930 310/929
f 306/932 307/931 310/929
f 305/935 309/934 312/933
f 308/936 305/935 312/933
f 315/939 314/938 313/937
f 316/940 315/939 313/937
f 318/943 319/942 320/941
f 317/944 318/943 320/941
f 314/947 318/946 317/945
f 313/948 314/947 317/945
f 316/951 320/950 319/949
f 315/952 316/951 319/949
f 315/955 319/954 318/953
f 314/956 315/955 318/953
f 313/959 317/958 320/957
f 316/960 313/959 320/957
f 323/963 322/962 321/961
f 324/964 323/963 321/961
f 326/967 327/966 328/965
f 325/968 326/967 328/965
f 322/971 326/970 325/969
f 321/972 322/971 325/969
f 324/975 328/974 327/973
f 323/976 324/975 327/973
f 323/979 327/978 326/977
f 322/980 323/979 326/977
f 321/983 325/982 328/981
f 324/984 321/983 328/981
f 331/987 330/986 329/985
f 332/988 331/987 329/985
f 334/991 335/990 336/989
f 333/992 334/991 336/989
f 330/995 334/994 333/993
f 329/996 330/995 333/993
f 332/999 336/998 335/997
f 331/1000 332/999 335/997
f 331/1003 335/1002 334/1001
f 330/1004 331/1003 334/1001
f 329/1007 333/1006 336/1005
f 332/1008 329/1007 336/1005
f 339/1011 338/1010 337/1009
f 340/1012 339/1011 337/1009
f 342/1015 343/1014 344/1013
f 341/1016 342/1015 344/1013
f 338/1019 342/1018 341/1017
f 337/1020 338/1019 341/1017
f 340/1023 344/1022 343/1021
f 339/1024 340/1023 343/1021
f 339/1027 343/1026 342/1025
f 338/1028 339/1027 342/1025
f 337/1031 341/1030 344/1029
f 340/1032 337/1031 344/1029
f 347/1035 346/1034 345/1033
f 348/1036 347/1035 345/1033
f 350/1039 351/1038 352/1037
f 349/1040 350/1039 352/1037
f 346/1043 350/1042 349/1041
f 345/1044 346/1043 349/1041
f 348/1047 352/1046 351/1045
f 347/1048 348/1047 351/1045
f 347/1051 351/1050 350/1049
f 346/1052 347/1051 350/1049
f 345/1055 349/1054 352/1053
f 348/1056 345/1055 352/1053
f 355/1059 354/1058 353/1057
f 356/1060 355/1059 353/1057
f 358/1063 359/1062 360/1061
f 357/1064 358/1063 360/1061
f 354/1067 358/1066 357/1065
f 353/1068 354/1067 357/1065
f 356/1071 360/1070 359/1069
f 355/1072 356/1071 359/1069
f 355/1075 359/1074 358/1073
f 354/1076 355/1075 358/1073
f 353/1079 357/1078 360/1077
f 356/1080 353/1079 360/1077
f 363/1083 362/1082 361/1081
f 364/1084 363/1083 361/1081
f 366/1087 367/1086 368/1085
f 365/1088 366/1087 368/1085
f 362/1091 366/1090 365/1089
f 361/1092 362/1091 365/1089
f 364/1095 368/1094 367/1093
f 363/1096 364/1095 367/1093
f 363/1099 367/1098 366/1097
f 362/1100 363/1099 366/1097
f 361/1103 365/1102 368/1101
f 364/1104 361/1103 368/1101
f 371/1107 370/1106 369/1105
f 372/1108 371/1107 369/1105
f 374/1111 375/1110 376/1109
f 373/1112 374/1111 376/1109
f 370/1115 374/1114 373/1113
f 369/1116 370/1115 373/1113
f 372/1119 376/1118 375/1117
f 371/1120 372/1119 375/1117
f 371/1123 375/1122 374/1121
f 370/1124 371/1123 374/1121
f 369/1127 373/1126 376/1125
f 372/1128 369/1127 376/1125
f 379/1131 378/1130 377/1129
f 380/1132 379/1131 377/1129
f 382/1135 383/1134 384/1133
f 381/1136 382/1135 384/1133
f 378/1139 382/1138 381/1137
f 377/1140 378/1139 381/1137
f 380/1143 384/1142 383/1141
f 379/1144 380/1143 383/1141
f 379/1147 383/1146 382/1145
f 378/1148 379/1147 382/1145
f 377/1151 381/1150 384/1149
f 380/1152 377/1151 384/1149
f 387/1155 386/1154 385/1153
f 388/1156 387/1155 385/1153
f 390/1159 391/1158 392/1157
f 389/1160 390/1159 392/1157
f 386/1163 390/1162 389/1161
f 385/1164 386/1163 389/1161
f 388/1167 392/1166 391/1165
f 387/1168 388/1167 391/1165
f 387/1171 391/1170 390/1169
f 386/1172 387/1171 390/1169
f 385/1175 389/1174 392/1173
f 388/1176 385/1175 392/1173
f 395/1179 394/1178 393/1177
f 396/1180 395/1179 393/1177
f 398/1183 399/1182 400/1181
f 397/1184 398/1183 400/1181
f 394/1187 398/1186 397/1185
f 393/1188 394/1187 397/1185
f 396/1191 400/1190 399/1189
f 395/1192 396/1191 399/1189
f 395/1195 399/1194 398/1193
f 394/1196 395/1195 398/1193
f 393/1199 397/1198 400/1197
f 396/1200 393/1199 400/1197
f 403/1203 402/1202 401/1201
f 404/1204 403/1203 401/1201
f 406/1207 407/1206 408/1205
f 405/1208 406/1207 408/1205
f 402/1211 406/1210 405/1209
f 401/1212 402/1211 405/1209
f 404/1215 408/1214 407/1213
f 403/1216 404/1215 407/1213
f 403/1219 407/1218 406/1217
f 402/1220 403/1219 406/1217
f 401/1223 405/1222 408/1221
f 404/1224 401/1223 408/1221
f 411/1227 410/1226 409/1225
f 412/1228 411/1227 409/1225
f 414/1231 415/1230 416/1229
f 413/1232 414/1231 416/1229
f 410/1235 414/1234 413/1233
f 409/1236 410/1235 413/1233
f 412/1239 416/1238 415/1237
f 411/1240 412/1239 415/1237
f 411/1243 415/1242 414/1241
f 410/1244 411/1243 414/1241
f 409/1247 413/1246 416/1245
f 412/1248 409/1247 416/1245
f 419/1251 418/1250 417/1249
f 420/1252 419/1251 417/1249
f 422/1255 423/1254 424/1253
f 421/1256 422/1255 424/1253
f 418/1259 422/1258 421/1257
f 417/1260 418/1259 421/1257
f 420/1263 424/1262 423/1261
f 419/1264 420/1263 423/1261
f 419/1267 423/1266 422/1265
f 418/1268 419/1267 422/1265
f 417/1271 421/1270 424/1269
f 420/1272 417/1271 424/1269
f 427/1275 426/1274 425/1273
f 428/1276 427/1275 425/1273
f 430/1279 431/1278 432/1277
f 429/1280 430/1279 432/1277
f 426/1283 430/1282 429/1281
f 425/1284 426/1283 429/1281
f 428/1287 432/1286 431/1285
f 427/1288 428/1287 431/1285
f 427/1291 431/1290 430/1289
f 426/1292 427/1291 430/1289
f 425/1295 429/1294 432/1293
f 428/1296 425/1295 432/1293
f 435/1299 434/1298 433/1297
f 436/1300 435/1299 433/1297
f 438/1303 439/1302 440/1301
f 437/1304 438/1303 440/1301
f 434/1307 438/1306 437/1305
f 433/1308 434/1307 437/1305
f 436/1311 440/1310 439/1309
f 435/1312 436/1311 439/1309
f 435/1315 439/1314 438/1313
f 434/1316 435/1315 438/1313
f 433/1319 437/1318 440/1317
f 436/1320 433/1319 440/1317
f 443/1323 442/1322 441/1321
f 444/1324 443/1323 441/1321
f 446/1327 447/1326 448/1325
f 445/1328 446/1327 448/1325
f 442/1331 446/1330 445/1329
f 441/1332 442/1331 445/1329
f 444/1335 448/1334 447/1333
f 443/1336 444/1335 447/1333
f 443/1339 447/1338 446/1337
f 442/1340 443/1339 446/1337
f 441/1343 445/1342 448/1341
f 444/1344 441/1343 448/1341
f 451/1347 450/1346 449/1345
f 452/1348 451/1347 449/1345
f 454/1351 455/1350 456/1349
f 453/1352 454/1351 456/1349
f 450/1355 454/1354 453/1353
f 449/1356 450/1355 453/1353
f 452/1359 456/1358 455/1357
f 451/1360 452/1359 455/1357
f 451/1363 455/1362 454/1361
f 450/1364 451/1363 454/1361
f 449/1367 453/1366 456/1365
f 452/1368 449/1367 456/1365
f 459/1371 458/1370 457/1369
f 460/1372 459/1371 457/1369
f 462/1375 463/1374 464/1373
f 461/1376 462/1375 464/1373
f 458/1379 462/1378 461/1377
f 457/1380 458/1379 461/1377
f 460/1383 464/1382 463/1381
f 459/1384 460/1383 463/1381
f 459/1387 463/1386 462/1385
f 458/1388 459/1387 462/1385
f 457/1391 461/1390 464/1389
f 460/1392 457/1391 464/1389
f 467/1395 466/1394 465/1393
f 468/1396 467/1395 465/1393
f 470/1399 471/1398 472/1397
f 469/1400 470/1399 472/1397
f 466/1403 470/1402 469/1401
f 465/1404 466/1403 469/1401
f 468/1407 472/1406 471/1405
f 467/1408 468/1407 471/1405
f 467/1411 471/1410 470/1409
f 466/1412 467/1411 470/1409
f 465/1415 469/1414 472/1413
f 468/1416 465/1415 472/1413
f 475/1419 474/1418 473/1417
f 476/1420 475/1419 473/1417
f 478/1423 479/1422 480/1421
f 477/1424 478/1423 480/1421
f 474/1427 478/1426 477/1425
f 473/1428 474/1427 477/1425
f 476/1431 480/1430 479/1429
f 475/1432 476/1431 479/1429
f 475/1435 479/1434 478/1433
f 474/1436 475/1435 478/1433
f 473/1439 477/1438 480/1437
f 476/1440 473/1439 480/1437
f 483/1443 482/1442 481/1441
f 484/1444 483/1443 481/1441
f 486/1447 487/1446 488/1445
f 485/1448 486/1447 488/1445
f 482/1451 486/1450 485/1449
f 481/1452 482/1451 485/1449
f 484/1455 488/1454 487/1453
f 483/1456 484/1455 487/1453
f 483/1459 487/1458 486/1457
f 482/1460 483/1459 486/1457
f 481/1463 485/1462 488/1461
f 484/1464 481/1463 488/1461
f 491/1467 490/1466 489/1465
f 492/1468 491/1467 489/1465
f 494/1471 495/1470 496/1469
f 493/1472 494/1471 496/1469
f 490/1475 494/1474 493/1473
f 489/1476 490/1475 493/1473
f 492/1479 496/1478 495/1477
f 491/1480 492/1479 495/1477
f 491/1483 495/1482 494/1481
f 490/1484 491/1483 494/1481
f 489/1487 493/1486 496/1485
f 492/1488 489/1487 496/1485
