v -43.37702 0.06672 27.74274
v -43.78569 1.43550 27.52606
v -44.69071 1.34297 28.64852
v -44.28204 -0.02580 28.86519
v -45.33154 -0.47902 27.98165
v -45.74021 0.88976 27.76497
v -44.83520 0.98229 26.64251
v -44.42653 -0.38649 26.85919
v -44.28204 -0.02580 28.86519
v -45.33154 -0.47902 27.98165
v -44.42653 -0.38649 26.85919
v -43.37702 0.06672 27.74274
v -43.78569 1.43550 27.52606
v -44.83520 0.98229 26.64251
v -45.74021 0.88976 27.76497
v -44.69071 1.34297 28.64852
v -44.69071 1.34297 28.64852
v -45.74021 0.88976 27.76497
v -45.33154 -0.47902 27.98165
v -44.28204 -0.02580 28.86519
v -43.37702 0.06672 27.74274
v -44.42653 -0.38649 26.85919
v -44.83520 0.98229 26.64251
v -43.78569 1.43550 27.52606
v 11.08445 0.56433 53.99985
v 10.35564 1.84643 54.05655
v 9.15272 1.18669 53.51257
v 9.88153 -0.09542 53.45588
v 10.32874 0.21942 52.08509
v 9.59993 1.50153 52.14179
v 10.80285 2.16127 52.68576
v 11.53166 0.87916 52.62906
v 9.88153 -0.09542 53.45588
v 10.32874 0.21942 52.08509
v 11.53166 0.87916 52.62906
v 11.08445 0.56433 53.99985
v 10.35564 1.84643 54.05655
v 10.80285 2.16127 52.68576
v 9.59993 1.50153 52.14179
v 9.15272 1.18669 53.51257
v 9.15272 1.18669 53.51257
v 9.59993 1.50153 52.14179
v 10.32874 0.21942 52.08509
v 9.88153 -0.09542 53.45588
v 11.08445 0.56433 53.99985
v 11.53166 0.87916 52.62906
v 10.80285 2.16127 52.68576
v 10.35564 1.84643 54.05655
v -66.18622 1.25297 11.75157
v -65.85603 2.34727 11.93624
v -65.45422 2.04979 12.98058
v -65.78441 0.95549 12.79592
v -66.81888 1.18923 13.26051
v -66.48869 2.28352 13.44518
v -66.89051 2.58100 12.40083
v -67.22070 1.48671 12.21616
v -65.78441 0.95549 12.79592
v -66.81888 1.18923 13.26051
v -67.22070 1.48671 12.21616
v -66.18622 1.25297 11.75157
v -65.85603 2.34727 11.93624
v -66.89051 2.58100 12.40083
v -66.48869 2.28352 13.44518
v -65.45422 2.04979 12.98058
v -65.45422 2.04979 12.98058
v -66.48869 2.28352 13.44518
v -66.81888 1.18923 13.26051
v -65.78441 0.95549 12.79592
v -66.18622 1.25297 11.75157
v -67.22070 1.48671 12.21616
v -66.89051 2.58100 12.40083
v -65.85603 2.34727 11.93624
v -54.79453 -0.06267 10.42829
v -54.69661 0.90967 10.24642
v -55.04074 0.77182 9.32410
v -55.13866 -0.20053 9.50596
v -54.21124 -0.35434 9.18292
v -54.11332 0.61800 9.00106
v -53.76920 0.75586 9.92339
v -53.86711 -0.21648 10.10525
v -55.13866 -0.20053 9.50596
v -54.21124 -0.35434 9.18292
v -53.86711 -0.21648 10.10525
v -54.79453 -0.06267 10.42829
v -54.69661 0.90967 10.24642
v -53.76920 0.75586 9.92339
v -54.11332 0.61800 9.00106
v -55.04074 0.77182 9.32410
v -55.04074 0.77182 9.32410
v -54.11332 0.61800 9.00106
v -54.21124 -0.35434 9.18292
v -55.13866 -0.20053 9.50596
v -54.79453 -0.06267 10.42829
v -53.86711 -0.21648 10.10525
v -53.76920 0.75586 9.92339
v -54.69661 0.90967 10.24642
v -35.16032 0.33440 43.86674
v -35.70257 2.00989 43.00901
v -33.95348 2.12863 42.13518
v -33.41123 0.45314 42.99291
v -32.71579 1.46092 44.52187
v -33.25804 3.13641 43.66415
v -35.00713 3.01768 44.53798
v -34.46488 1.34219 45.39570
v -33.41123 0.45314 42.99291
v -32.71579 1.46092 44.52187
v -34.46488 1.34219 45.39570
v -35.16032 0.33440 43.86674
v -35.70257 2.00989 43.00901
v -35.00713 3.01768 44.53798
v -33.25804 3.13641 43.66415
v -33.95348 2.12863 42.13518
v -33.95348 2.12863 42.13518
v -33.25804 3.13641 43.66415
v -32.71579 1.46092 44.52187
v -33.41123 0.45314 42.99291
v -35.16032 0.33440 43.86674
v -34.46488 1.34219 45.39570
v -35.00713 3.01768 44.53798
v -35.70257 2.00989 43.00901
v -69.95655 1.81651 -2.08105
v -70.02532 2.74492 -2.09384
v -70.86800 2.67713 -2.48384
v -70.79924 1.74873 -2.47106
v -70.40940 1.76596 -3.31637
v -70.47817 2.69436 -3.32916
v -69.63548 2.76215 -2.93915
v -69.56671 1.83375 -2.92636
v -70.79924 1.74873 -2.47106
v -70.40940 1.76596 -3.31637
v -69.56671 1.83375 -2.92636
v -69.95655 1.81651 -2.08105
v -70.02532 2.74492 -2.09384
v -69.63548 2.76215 -2.93915
v -70.47817 2.69436 -3.32916
v -70.86800 2.67713 -2.48384
v -70.86800 2.67713 -2.48384
v -70.47817 2.69436 -3.32916
v -70.40940 1.76596 -3.31637
v -70.79924 1.74873 -2.47106
v -69.95655 1.81651 -2.08105
v -69.56671 1.83375 -2.92636
v -69.63548 2.76215 -2.93915
v -70.02532 2.74492 -2.09384
v 53.37281 1.11244 34.53463
v 53.54551 2.94334 33.55415
v 53.37097 1.97576 31.71658
v 53.19827 0.14486 32.69705
v 55.26783 -0.08953 32.62390
v 55.44053 1.74137 31.64342
v 55.61507 2.70896 33.48100
v 55.44237 0.87806 34.46147
v 53.19827 0.14486 32.69705
v 55.26783 -0.08953 32.62390
v 55.44237 0.87806 34.46147
v 53.37281 1.11244 34.53463
v 53.54551 2.94334 33.55415
v 55.61507 2.70896 33.48100
v 55.44053 1.74137 31.64342
v 53.37097 1.97576 31.71658
v 53.37097 1.97576 31.71658
v 55.44053 1.74137 31.64342
v 55.26783 -0.08953 32.62390
v 53.19827 0.14486 32.69705
v 53.37281 1.11244 34.53463
v 55.44237 0.87806 34.46147
v 55.61507 2.70896 33.48100
v 53.54551 2.94334 33.55415
v 55.61562 0.06516 16.71691
v 54.80063 1.38585 17.17854
v 53.40175 0.62469 16.88650
v 54.21674 -0.69600 16.42487
v 54.23793 -0.15016 14.90069
v 53.42295 1.17053 15.36232
v 54.82183 1.93169 15.65435
v 55.63682 0.61100 15.19272
v 54.21674 -0.69600 16.42487
v 54.23793 -0.15016 14.90069
v 55.63682 0.61100 15.19272
v 55.61562 0.06516 16.71691
v 54.80063 1.38585 17.17854
v 54.82183 1.93169 15.65435
v 53.42295 1.17053 15.36232
v 53.40175 0.62469 16.88650
v 53.40175 0.62469 16.88650
v 53.42295 1.17053 15.36232
v 54.23793 -0.15016 14.90069
v 54.21674 -0.69600 16.42487
v 55.61562 0.06516 16.71691
v 55.63682 0.61100 15.19272
v 54.82183 1.93169 15.65435
v 54.80063 1.38585 17.17854
v 37.92047 0.27076 37.28762
v 37.87074 1.52189 37.46795
v 39.12432 1.54751 37.63583
v 39.17405 0.29639 37.45550
v 39.01167 0.11110 38.69630
v 38.96194 1.36222 38.87663
v 37.70836 1.33659 38.70875
v 37.75809 0.08547 38.52842
v 39.17405 0.29639 37.45550
v 39.01167 0.11110 38.69630
v 37.75809 0.08547 38.52842
v 37.92047 0.27076 37.28762
v 37.87074 1.52189 37.46795
v 37.70836 1.33659 38.70875
v 38.96194 1.36222 38.87663
v 39.12432 1.54751 37.63583
v 39.12432 1.54751 37.63583
v 38.96194 1.36222 38.87663
v 39.01167 0.11110 38.69630
v 39.17405 0.29639 37.45550
v 37.92047 0.27076 37.28762
v 37.75809 0.08547 38.52842
v 37.70836 1.33659 38.70875
v 37.87074 1.52189 37.46795
v 43.95453 0.89221 43.61381
v 43.88260 1.91336 42.96245
v 44.53869 2.49471 43.80137
v 44.61062 1.47355 44.45274
v 43.59250 1.77603 45.03937
v 43.52057 2.79719 44.38801
v 42.86447 2.21585 43.54908
v 42.93640 1.19469 44.20045
v 44.61062 1.47355 44.45274
v 43.59250 1.77603 45.03937
v 42.93640 1.19469 44.20045
v 43.95453 0.89221 43.61381
v 43.88260 1.91336 42.96245
v 42.86447 2.21585 43.54908
v 43.52057 2.79719 44.38801
v 44.53869 2.49471 43.80137
v 44.53869 2.49471 43.80137
v 43.52057 2.79719 44.38801
v 43.59250 1.77603 45.03937
v 44.61062 1.47355 44.45274
v 43.95453 0.89221 43.61381
v 42.93640 1.19469 44.20045
v 42.86447 2.21585 43.54908
v 43.88260 1.91336 42.96245
v 38.12678 0.50249 56.46868
v 38.91429 2.43331 56.61781
v 37.03277 3.15804 57.17019
v 36.24526 1.22722 57.02106
v 35.78679 1.56952 55.01030
v 36.57430 3.50034 55.15944
v 38.45582 2.77561 54.60706
v 37.66832 0.84479 54.45792
v 36.24526 1.22722 57.02106
v 35.78679 1.56952 55.01030
v 37.66832 0.84479 54.45792
v 38.12678 0.50249 56.46868
v 38.91429 2.43331 56.61781
v 38.45582 2.77561 54.60706
v 36.57430 3.50034 55.15944
v 37.03277 3.15804 57.17019
v 37.03277 3.15804 57.17019
v 36.57430 3.50034 55.15944
v 35.78679 1.56952 55.01030
v 36.24526 1.22722 57.02106
v 38.12678 0.50249 56.46868
v 37.66832 0.84479 54.45792
v 38.45582 2.77561 54.60706
v 38.91429 2.43331 56.61781
v 64.05996 0.71560 -19.52588
v 64.27078 1.29218 -19.33585
v 64.15594 1.52759 -19.92270
v 63.94512 0.95101 -20.11274
v 64.54125 0.79245 -20.29299
v 64.75207 1.36903 -20.10296
v 64.86690 1.13362 -19.51611
v 64.65608 0.55704 -19.70614
v 63.94512 0.95101 -20.11274
v 64.54125 0.79245 -20.29299
v 64.65608 0.55704 -19.70614
v 64.05996 0.71560 -19.52588
v 64.27078 1.29218 -19.33585
v 64.86690 1.13362 -19.51611
v 64.75207 1.36903 -20.10296
v 64.15594 1.52759 -19.92270
v 64.15594 1.52759 -19.92270
v 64.75207 1.36903 -20.10296
v 64.54125 0.79245 -20.29299
v 63.94512 0.95101 -20.11274
v 64.05996 0.71560 -19.52588
v 64.65608 0.55704 -19.70614
v 64.86690 1.13362 -19.51611
v 64.27078 1.29218 -19.33585
v -45.65900 1.95273 57.85095
v -45.92738 3.14411 57.66523
v -46.50082 2.85063 56.61122
v -46.23244 1.65925 56.79694
v -45.17176 1.80203 56.18012
v -45.44014 2.99341 55.99439
v -44.86670 3.28689 57.04841
v -44.59832 2.09551 57.23413
v -46.23244 1.65925 56.79694
v -45.17176 1.80203 56.18012
v -44.59832 2.09551 57.23413
v -45.65900 1.95273 57.85095
v -45.92738 3.14411 57.66523
v -44.86670 3.28689 57.04841
v -45.44014 2.99341 55.99439
v -46.50082 2.85063 56.61122
v -46.50082 2.85063 56.61122
v -45.44014 2.99341 55.99439
v -45.17176 1.80203 56.18012
v -46.23244 1.65925 56.79694
v -45.65900 1.95273 57.85095
v -44.59832 2.09551 57.23413
v -44.86670 3.28689 57.04841
v -45.92738 3.14411 57.66523
v 25.47095 1.18269 62.27975
v 24.99695 2.26931 62.16831
v 24.33310 1.88627 61.25703
v 24.80710 0.79965 61.36847
v 25.67454 1.10027 60.61019
v 25.20055 2.18689 60.49875
v 25.86440 2.56993 61.41002
v 26.33840 1.48331 61.52146
v 24.80710 0.79965 61.36847
v 25.67454 1.10027 60.61019
v 26.33840 1.48331 61.52146
v 25.47095 1.18269 62.27975
v 24.99695 2.26931 62.16831
v 25.86440 2.56993 61.41002
v 25.20055 2.18689 60.49875
v 24.33310 1.88627 61.25703
v 24.33310 1.88627 61.25703
v 25.20055 2.18689 60.49875
v 25.67454 1.10027 60.61019
v 24.80710 0.79965 61.36847
v 25.47095 1.18269 62.27975
v 26.33840 1.48331 61.52146
v 25.86440 2.56993 61.41002
v 24.99695 2.26931 62.16831
v 59.86668 1.38228 35.49805
v 60.40129 3.22418 35.23943
v 62.09575 2.85284 36.09745
v 61.56114 1.01094 36.35608
v 60.79414 1.47441 38.07136
v 61.32875 3.31631 37.81273
v 59.63429 3.68765 36.95471
v 59.09968 1.84575 37.21333
v 61.56114 1.01094 36.35608
v 60.79414 1.47441 38.07136
v 59.09968 1.84575 37.21333
v 59.86668 1.38228 35.49805
v 60.40129 3.22418 35.23943
v 59.63429 3.68765 36.95471
v 61.32875 3.31631 37.81273
v 62.09575 2.85284 36.09745
v 62.09575 2.85284 36.09745
v 61.32875 3.31631 37.81273
v 60.79414 1.47441 38.07136
v 61.56114 1.01094 36.35608
v 59.86668 1.38228 35.49805
v 59.09968 1.84575 37.21333
v 59.63429 3.68765 36.95471
v 60.40129 3.22418 35.23943
v -47.11207 -0.01885 -55.66209
v -46.75455 1.06747 -55.10310
v -47.57934 1.71176 -55.82765
v -47.93687 0.62545 -56.38665
v -47.03561 0.78414 -57.27148
v -46.67808 1.87046 -56.71249
v -45.85329 1.22616 -55.98793
v -46.21081 0.13985 -56.54692
v -47.93687 0.62545 -56.38665
v -47.03561 0.78414 -57.27148
v -46.21081 0.13985 -56.54692
v -47.11207 -0.01885 -55.66209
v -46.75455 1.06747 -55.10310
v -45.85329 1.22616 -55.98793
v -46.67808 1.87046 -56.71249
v -47.57934 1.71176 -55.82765
v -47.57934 1.71176 -55.82765
v -46.67808 1.87046 -56.71249
v -47.03561 0.78414 -57.27148
v -47.93687 0.62545 -56.38665
v -47.11207 -0.01885 -55.66209
v -46.21081 0.13985 -56.54692
v -45.85329 1.22616 -55.98793
v -46.75455 1.06747 -55.10310
vn 0.72639 0.31368 0.61153
vn 0.72639 0.31368 0.61153
vn 0.72639 0.31368 0.61153
vn 0.72639 0.31368 0.61153
vn -0.72639 -0.31368 -0.61153
vn -0.72639 -0.31368 -0.61153
vn -0.72639 -0.31368 -0.61153
vn -0.72639 -0.31368 -0.61153
vn 0.28285 -0.94737 0.14997
vn 0.28285 -0.94737 0.14997
vn 0.28285 -0.94737 0.14997
vn 0.28285 -0.94737 0.14997
vn -0.28285 0.94737 -0.14997
vn -0.28285 0.94737 -0.14997
vn -0.28285 0.94737 -0.14997
vn -0.28285 0.94737 -0.14997
vn -0.62638 -0.06404 0.77688
vn -0.62638 -0.06404 0.77688
vn -0.62638 -0.06404 0.77688
vn -0.62638 -0.06404 0.77688
vn 0.62638 0.06404 -0.77688
vn 0.62638 0.06404 -0.77688
vn 0.62638 0.06404 -0.77688
vn 0.62638 0.06404 -0.77688
vn -0.30302 -0.21332 0.92880
vn -0.30302 -0.21332 0.92880
vn -0.30302 -0.21332 0.92880
vn -0.30302 -0.21332 0.92880
vn 0.30302 0.21332 -0.92880
vn 0.30302 0.21332 -0.92880
vn 0.30302 0.21332 -0.92880
vn 0.30302 0.21332 -0.92880
vn 0.49382 -0.86872 -0.03842
vn 0.49382 -0.86872 -0.03842
vn 0.49382 -0.86872 -0.03842
vn 0.49382 -0.86872 -0.03842
vn -0.49382 0.86872 0.03842
vn -0.49382 0.86872 0.03842
vn -0.49382 0.86872 0.03842
vn -0.49382 0.86872 0.03842
vn -0.81506 -0.44702 -0.36858
vn -0.81506 -0.44702 -0.36858
vn -0.81506 -0.44702 -0.36858
vn -0.81506 -0.44702 -0.36858
vn 0.81506 0.44702 0.36858
vn 0.81506 0.44702 0.36858
vn 0.81506 0.44702 0.36858
vn 0.81506 0.44702 0.36858
vn 0.89344 -0.20187 -0.40126
vn 0.89344 -0.20187 -0.40126
vn 0.89344 -0.20187 -0.40126
vn 0.89344 -0.20187 -0.40126
vn -0.89344 0.20187 0.40126
vn -0.89344 0.20187 0.40126
vn -0.89344 0.20187 0.40126
vn -0.89344 0.20187 0.40126
vn -0.28518 -0.94511 -0.15949
vn -0.28518 -0.94511 -0.15949
vn -0.28518 -0.94511 -0.15949
vn -0.28518 -0.94511 -0.15949
vn 0.28518 0.94511 0.15949
vn 0.28518 0.94511 0.15949
vn 0.28518 0.94511 0.15949
vn 0.28518 0.94511 0.15949
vn 0.34703 -0.25693 0.90197
vn 0.34703 -0.25693 0.90197
vn 0.34703 -0.25693 0.90197
vn 0.34703 -0.25693 0.90197
vn -0.34703 0.25693 -0.90197
vn -0.34703 0.25693 -0.90197
vn -0.34703 0.25693 -0.90197
vn -0.34703 0.25693 -0.90197
vn -0.93298 0.15473 0.32498
vn -0.93298 0.15473 0.32498
vn -0.93298 0.15473 0.32498
vn -0.93298 0.15473 0.32498
vn 0.93298 -0.15473 -0.32498
vn 0.93298 -0.15473 -0.32498
vn 0.93298 -0.15473 -0.32498
vn 0.93298 -0.15473 -0.32498
vn -0.09850 -0.97817 0.18295
vn -0.09850 -0.97817 0.18295
vn -0.09850 -0.97817 0.18295
vn -0.09850 -0.97817 0.18295
vn 0.09850 0.97817 -0.18295
vn 0.09850 0.97817 -0.18295
vn 0.09850 0.97817 -0.18295
vn 0.09850 0.97817 -0.18295
vn -0.34619 -0.13868 -0.92786
vn -0.34619 -0.13868 -0.92786
vn -0.34619 -0.13868 -0.92786
vn -0.34619 -0.13868 -0.92786
vn 0.34619 0.13868 0.92786
vn 0.34619 0.13868 0.92786
vn 0.34619 0.13868 0.92786
vn 0.34619 0.13868 0.92786
vn -0.35503 -0.51448 -0.78055
vn -0.35503 -0.51448 -0.78055
vn -0.35503 -0.51448 -0.78055
vn -0.35503 -0.51448 -0.78055
vn 0.35503 0.51448 0.78055
vn 0.35503 0.51448 0.78055
vn 0.35503 0.51448 0.78055
vn 0.35503 0.51448 0.78055
vn 0.27682 -0.85536 0.43788
vn 0.27682 -0.85536 0.43788
vn 0.27682 -0.85536 0.43788
vn 0.27682 -0.85536 0.43788
vn -0.27682 0.85536 -0.43788
vn -0.27682 0.85536 -0.43788
vn -0.27682 0.85536 -0.43788
vn -0.27682 0.85536 -0.43788
vn 0.89293 0.06061 -0.44610
vn 0.89293 0.06061 -0.44610
vn 0.89293 0.06061 -0.44610
vn 0.89293 0.06061 -0.44610
vn -0.89293 -0.06061 0.44610
vn -0.89293 -0.06061 0.44610
vn -0.89293 -0.06061 0.44610
vn -0.89293 -0.06061 0.44610
vn -0.41871 -0.01851 0.90793
vn -0.41871 -0.01851 0.90793
vn -0.41871 -0.01851 0.90793
vn -0.41871 -0.01851 0.90793
vn 0.41871 0.01851 -0.90793
vn 0.41871 0.01851 -0.90793
vn 0.41871 0.01851 -0.90793
vn 0.41871 0.01851 -0.90793
vn 0.07386 -0.99717 0.01373
vn 0.07386 -0.99717 0.01373
vn 0.07386 -0.99717 0.01373
vn 0.07386 -0.99717 0.01373
vn -0.07386 0.99717 -0.01373
vn -0.07386 0.99717 -0.01373
vn -0.07386 0.99717 -0.01373
vn -0.07386 0.99717 -0.01373
vn -0.90511 -0.07281 -0.41890
vn -0.90511 -0.07281 -0.41890
vn -0.90511 -0.07281 -0.41890
vn -0.90511 -0.07281 -0.41890
vn 0.90511 0.07281 0.41890
vn 0.90511 0.07281 0.41890
vn 0.90511 0.07281 0.41890
vn 0.90511 0.07281 0.41890
vn -0.99304 0.11246 0.03510
vn -0.99304 0.11246 0.03510
vn -0.99304 0.11246 0.03510
vn -0.99304 0.11246 0.03510
vn 0.99304 -0.11246 -0.03510
vn 0.99304 -0.11246 -0.03510
vn 0.99304 -0.11246 -0.03510
vn 0.99304 -0.11246 -0.03510
vn -0.08287 -0.87852 0.47046
vn -0.08287 -0.87852 0.47046
vn -0.08287 -0.87852 0.47046
vn -0.08287 -0.87852 0.47046
vn 0.08287 0.87852 -0.47046
vn 0.08287 0.87852 -0.47046
vn 0.08287 0.87852 -0.47046
vn 0.08287 0.87852 -0.47046
vn -0.08375 -0.46428 -0.88172
vn -0.08375 -0.46428 -0.88172
vn -0.08375 -0.46428 -0.88172
vn -0.08375 -0.46428 -0.88172
vn 0.08375 0.46428 0.88172
vn 0.08375 0.46428 0.88172
vn 0.08375 0.46428 0.88172
vn 0.08375 0.46428 0.88172
vn -0.01309 -0.33712 0.94137
vn -0.01309 -0.33712 0.94137
vn -0.01309 -0.33712 0.94137
vn -0.01309 -0.33712 0.94137
vn 0.01309 0.33712 -0.94137
vn 0.01309 0.33712 -0.94137
vn 0.01309 0.33712 -0.94137
vn 0.01309 0.33712 -0.94137
vn 0.50335 -0.81569 -0.28511
vn 0.50335 -0.81569 -0.28511
vn 0.50335 -0.81569 -0.28511
vn 0.50335 -0.81569 -0.28511
vn -0.50335 0.81569 0.28511
vn -0.50335 0.81569 0.28511
vn -0.50335 0.81569 0.28511
vn -0.50335 0.81569 0.28511
vn -0.86398 -0.47011 -0.18037
vn -0.86398 -0.47011 -0.18037
vn -0.86398 -0.47011 -0.18037
vn -0.86398 -0.47011 -0.18037
vn 0.86398 0.47011 0.18037
vn 0.86398 0.47011 0.18037
vn 0.86398 0.47011 0.18037
vn 0.86398 0.47011 0.18037
vn 0.12836 0.14648 -0.98085
vn 0.12836 0.14648 -0.98085
vn 0.12836 0.14648 -0.98085
vn 0.12836 0.14648 -0.98085
vn -0.12836 -0.14648 0.98085
vn -0.12836 -0.14648 0.98085
vn -0.12836 -0.14648 0.98085
vn -0.12836 -0.14648 0.98085
vn 0.03931 -0.98901 -0.14255
vn 0.03931 -0.98901 -0.14255
vn 0.03931 -0.98901 -0.14255
vn 0.03931 -0.98901 -0.14255
vn -0.03931 0.98901 0.14255
vn -0.03931 0.98901 0.14255
vn -0.03931 0.98901 0.14255
vn -0.03931 0.98901 0.14255
vn 0.99095 0.02026 0.13271
vn 0.99095 0.02026 0.13271
vn 0.99095 0.02026 0.13271
vn 0.99095 0.02026 0.13271
vn -0.99095 -0.02026 -0.13271
vn -0.99095 -0.02026 -0.13271
vn -0.99095 -0.02026 -0.13271
vn -0.99095 -0.02026 -0.13271
vn 0.83910 -0.24930 -0.48348
vn 0.83910 -0.24930 -0.48348
vn 0.83910 -0.24930 -0.48348
vn 0.83910 -0.24930 -0.48348
vn -0.83910 0.24930 0.48348
vn -0.83910 0.24930 0.48348
vn -0.83910 0.24930 0.48348
vn -0.83910 0.24930 0.48348
vn 0.05928 -0.84160 0.53683
vn 0.05928 -0.84160 0.53683
vn 0.05928 -0.84160 0.53683
vn 0.05928 -0.84160 0.53683
vn -0.05928 0.84160 -0.53683
vn -0.05928 0.84160 -0.53683
vn -0.05928 0.84160 -0.53683
vn -0.05928 0.84160 -0.53683
vn 0.54073 0.47912 0.69141
vn 0.54073 0.47912 0.69141
vn 0.54073 0.47912 0.69141
vn 0.54073 0.47912 0.69141
vn -0.54073 -0.47912 -0.69141
vn -0.54073 -0.47912 -0.69141
vn -0.54073 -0.47912 -0.69141
vn -0.54073 -0.47912 -0.69141
vn 0.21930 -0.16373 0.96182
vn 0.21930 -0.16373 0.96182
vn 0.21930 -0.16373 0.96182
vn 0.21930 -0.16373 0.96182
vn -0.21930 0.16373 -0.96182
vn -0.21930 0.16373 -0.96182
vn -0.21930 0.16373 -0.96182
vn -0.21930 0.16373 -0.96182
vn -0.37669 -0.92359 -0.07134
vn -0.37669 -0.92359 -0.07134
vn -0.37669 -0.92359 -0.07134
vn -0.37669 -0.92359 -0.07134
vn 0.37669 0.92359 0.07134
vn 0.37669 0.92359 0.07134
vn 0.37669 0.92359 0.07134
vn 0.37669 0.92359 0.07134
vn -0.90000 0.34667 0.26422
vn -0.90000 0.34667 0.26422
vn -0.90000 0.34667 0.26422
vn -0.90000 0.34667 0.26422
vn 0.90000 -0.34667 -0.26422
vn 0.90000 -0.34667 -0.26422
vn 0.90000 -0.34667 -0.26422
vn 0.90000 -0.34667 -0.26422
vn -0.92761 0.24673 0.28049
vn -0.92761 0.24673 0.28049
vn -0.92761 0.24673 0.28049
vn -0.92761 0.24673 0.28049
vn 0.92761 -0.24673 -0.28049
vn 0.92761 -0.24673 -0.28049
vn 0.92761 -0.24673 -0.28049
vn 0.92761 -0.24673 -0.28049
vn -0.32805 -0.89719 -0.29570
vn -0.32805 -0.89719 -0.29570
vn -0.32805 -0.89719 -0.29570
vn -0.32805 -0.89719 -0.29570
vn 0.32805 0.89719 0.29570
vn 0.32805 0.89719 0.29570
vn 0.32805 0.89719 0.29570
vn 0.32805 0.89719 0.29570
vn -0.17869 0.36631 -0.91318
vn -0.17869 0.36631 -0.91318
vn -0.17869 0.36631 -0.91318
vn -0.17869 0.36631 -0.91318
vn 0.17869 -0.36631 0.91318
vn 0.17869 -0.36631 0.91318
vn 0.17869 -0.36631 0.91318
vn 0.17869 -0.36631 0.91318
vn -0.85866 -0.11559 0.49934
vn -0.85866 -0.11559 0.49934
vn -0.85866 -0.11559 0.49934
vn -0.85866 -0.11559 0.49934
vn 0.85866 0.11559 -0.49934
vn 0.85866 0.11559 -0.49934
vn 0.85866 0.11559 -0.49934
vn 0.85866 0.11559 -0.49934
vn 0.21726 -0.96447 0.15035
vn 0.21726 -0.96447 0.15035
vn 0.21726 -0.96447 0.15035
vn 0.21726 -0.96447 0.15035
vn -0.21726 0.96447 -0.15035
vn -0.21726 0.96447 -0.15035
vn -0.21726 0.96447 -0.15035
vn -0.21726 0.96447 -0.15035
vn -0.46422 -0.23759 -0.85326
vn -0.46422 -0.23759 -0.85326
vn -0.46422 -0.23759 -0.85326
vn -0.46422 -0.23759 -0.85326
vn 0.46422 0.23759 0.85326
vn 0.46422 0.23759 0.85326
vn 0.46422 0.23759 0.85326
vn 0.46422 0.23759 0.85326
vn -0.72850 -0.25247 0.63682
vn -0.72850 -0.25247 0.63682
vn -0.72850 -0.25247 0.63682
vn -0.72850 -0.25247 0.63682
vn 0.72850 0.25247 -0.63682
vn 0.72850 0.25247 -0.63682
vn 0.72850 0.25247 -0.63682
vn 0.72850 0.25247 -0.63682
vn 0.39807 -0.91257 0.09359
vn 0.39807 -0.91257 0.09359
vn 0.39807 -0.91257 0.09359
vn 0.39807 -0.91257 0.09359
vn -0.39807 0.91257 -0.09359
vn -0.39807 0.91257 -0.09359
vn -0.39807 0.91257 -0.09359
vn -0.39807 0.91257 -0.09359
vn -0.55752 -0.32168 -0.76531
vn -0.55752 -0.32168 -0.76531
vn -0.55752 -0.32168 -0.76531
vn -0.55752 -0.32168 -0.76531
vn 0.55752 0.32168 0.76531
vn 0.55752 0.32168 0.76531
vn 0.55752 0.32168 0.76531
vn 0.55752 0.32168 0.76531
vn 0.39633 -0.23948 -0.88633
vn 0.39633 -0.23948 -0.88633
vn 0.39633 -0.23948 -0.88633
vn 0.39633 -0.23948 -0.88633
vn -0.39633 0.23948 0.88633
vn -0.39633 0.23948 0.88633
vn -0.39633 0.23948 0.88633
vn -0.39633 0.23948 0.88633
vn -0.27624 -0.95175 0.13364
vn -0.27624 -0.95175 0.13364
vn -0.27624 -0.95175 0.13364
vn -0.27624 -0.95175 0.13364
vn 0.27624 0.95175 -0.13364
vn 0.27624 0.95175 -0.13364
vn 0.27624 0.95175 -0.13364
vn 0.27624 0.95175 -0.13364
vn 0.87556 -0.19188 0.44336
vn 0.87556 -0.19188 0.44336
vn 0.87556 -0.19188 0.44336
vn 0.87556 -0.19188 0.44336
vn -0.87556 0.19188 -0.44336
vn -0.87556 0.19188 -0.44336
vn -0.87556 0.19188 -0.44336
vn -0.87556 0.19188 -0.44336
vn -0.70801 -0.12467 0.69511
vn -0.70801 -0.12467 0.69511
vn -0.70801 -0.12467 0.69511
vn -0.70801 -0.12467 0.69511
vn 0.70801 0.12467 -0.69511
vn 0.70801 0.12467 -0.69511
vn 0.70801 0.12467 -0.69511
vn 0.70801 0.12467 -0.69511
vn -0.28087 -0.85339 -0.43914
vn -0.28087 -0.85339 -0.43914
vn -0.28087 -0.85339 -0.43914
vn -0.28087 -0.85339 -0.43914
vn 0.28087 0.85339 0.43914
vn 0.28087 0.85339 0.43914
vn 0.28087 0.85339 0.43914
vn 0.28087 0.85339 0.43914
vn -0.64794 0.50615 -0.56920
vn -0.64794 0.50615 -0.56920
vn -0.64794 0.50615 -0.56920
vn -0.64794 0.50615 -0.56920
vn 0.64794 -0.50615 0.56920
vn 0.64794 -0.50615 0.56920
vn 0.64794 -0.50615 0.56920
vn 0.64794 -0.50615 0.56920
vt 0.000 0.000
vt 1.000 0.000
vt 1.000 1.000
vt 0.000 1.000
vt 0.000 0.000
vt 1.000 0.000
vt 1.000 1.000
vt 0.000 1.000
vt 0.000 0.000
vt 1.000 0.000
vt 1.000 1.000
vt 0.000 1.000
vt 0.000 0.000
vt 1.000 0.000
vt 1.000 1.000
vt 0.000 1.000
vt 0.000 0.000
vt 1.000 0.000
vt 1.000 1.000
vt 0.000 1.000
vt 0.000 0.000
vt 1.000 0.000
vt 1.000 1.000
vt 0.000 1.000
vt 0.000 0.000
vt 1.000 0.000
vt 1.000 1.000
vt 0.000 1.000
vt 0.000 0.000
vt 1.000 0.000
vt 1.000 1.000
vt 0.000 1.000
vt 0.000 0.000
vt 1.000 0.000
vt 1.000 1.000
vt 0.000 1.000
vt 0.000 0.000
vt 1.000 0.000
vt 1.000 1.000
vt 0.000 1.000
vt 0.000 0.000
vt 1.000 0.000
vt 1.000 1.000
vt 0.000 1.000
vt 0.000 0.000
vt 1.000 0.000
vt 1.000 1.000
vt 0.000 1.000
vt 0.000 0.000
vt 1.000 0.000
vt 1.000 1.000
vt 0.000 1.000
vt 0.000 0.000
vt 1.000 0.000
vt 1.000 1.000
vt 0.000 1.000
vt 0.000 0.000
vt 1.000 0.000
vt 1.000 1.000
vt 0.000 1.000
vt 0.000 0.000
vt 1.000 0.000
vt 1.000 1.000
vt 0.000 1.000
vt 0.000 0.000
vt 1.000 0.000
vt 1.000 1.000
vt 0.000 1.000
vt 0.000 0.000
vt 1.000 0.000
vt 1.000 1.000
vt 0.000 1.000
vt 0.000 0.000
vt 1.000 0.000
vt 1.000 1.000
vt 0.000 1.000
vt 0.000 0.000
vt 1.000 0.000
vt 1.000 1.000
vt 0.000 1.000
vt 0.000 0.000
vt 1.000 0.000
vt 1.000 1.000
vt 0.000 1.000
vt 0.000 0.000
vt 1.000 0.000
vt 1.000 1.000
vt 0.000 1.000
vt 0.000 0.000
vt 1.000 0.000
vt 1.000 1.000
vt 0.000 1.000
vt 0.000 0.000
vt 1.000 0.000
vt 1.000 1.000
vt 0.000 1.000
vt 0.000 0.000
vt 1.000 0.000
vt 1.000 1.000
vt 0.000 1.000
vt 0.000 0.000
vt 1.000 0.000
vt 1.000 1.000
vt 0.000 1.000
vt 0.000 0.000
vt 1.000 0.000
vt 1.000 1.000
vt 0.000 1.000
vt 0.000 0.000
vt 1.000 0.000
vt 1.000 1.000
vt 0.000 1.000
vt 0.000 0.000
vt 1.000 0.000
vt 1.000 1.000
vt 0.000 1.000
vt 0.000 0.000
vt 1.000 0.000
vt 1.000 1.000
vt 0.000 1.000
vt 0.000 0.000
vt 1.000 0.000
vt 1.000 1.000
vt 0.000 1.000
vt 0.000 0.000
vt 1.000 0.000
vt 1.000 1.000
vt 0.000 1.000
vt 0.000 0.000
vt 1.000 0.000
vt 1.000 1.000
vt 0.000 1.000
vt 0.000 0.000
vt 1.000 0.000
vt 1.000 1.000
vt 0.000 1.000
vt 0.000 0.000
vt 1.000 0.000
vt 1.000 1.000
vt 0.000 1.000
vt 0.000 0.000
vt 1.000 0.000
vt 1.000 1.000
vt 0.000 1.000
vt 0.000 0.000
vt 1.000 0.000
vt 1.000 1.000
vt 0.000 1.000
vt 0.000 0.000
vt 1.000 0.000
vt 1.000 1.000
vt 0.000 1.000
vt 0.000 0.000
vt 1.000 0.000
vt 1.000 1.000
vt 0.000 1.000
vt 0.000 0.000
vt 1.000 0.000
vt 1.000 1.000
vt 0.000 1.000
vt 0.000 0.000
vt 1.000 0.000
vt 1.000 1.000
vt 0.000 1.000
vt 0.000 0.000
vt 1.000 0.000
vt 1.000 1.000
vt 0.000 1.000
vt 0.000 0.000
vt 1.000 0.000
vt 1.000 1.000
vt 0.000 1.000
vt 0.000 0.000
vt 1.000 0.000
vt 1.000 1.000
vt 0.000 1.000
vt 0.000 0.000
vt 1.000 0.000
vt 1.000 1.000
vt 0.000 1.000
vt 0.000 0.000
vt 1.000 0.000
vt 1.000 1.000
vt 0.000 1.000
vt 0.000 0.000
vt 1.000 0.000
vt 1.000 1.000
vt 0.000 1.000
vt 0.000 0.000
vt 1.000 0.000
vt 1.000 1.000
vt 0.000 1.000
vt 0.000 0.000
vt 1.000 0.000
vt 1.000 1.000
vt 0.000 1.000
vt 0.000 0.000
vt 1.000 0.000
vt 1.000 1.000
vt 0.000 1.000
vt 0.000 0.000
vt 1.000 0.000
vt 1.000 1.000
vt 0.000 1.000
vt 0.000 0.000
vt 1.000 0.000
vt 1.000 1.000
vt 0.000 1.000
vt 0.000 0.000
vt 1.000 0.000
vt 1.000 1.000
vt 0.000 1.000
vt 0.000 0.000
vt 1.000 0.000
vt 1.000 1.000
vt 0.000 1.000
vt 0.000 0.000
vt 1.000 0.000
vt 1.000 1.000
vt 0.000 1.000
vt 0.000 0.000
vt 1.000 0.000
vt 1.000 1.000
vt 0.000 1.000
vt 0.000 0.000
vt 1.000 0.000
vt 1.000 1.000
vt 0.000 1.000
vt 0.000 0.000
vt 1.000 0.000
vt 1.000 1.000
vt 0.000 1.000
vt 0.000 0.000
vt 1.000 0.000
vt 1.000 1.000
vt 0.000 1.000
vt 0.000 0.000
vt 1.000 0.000
vt 1.000 1.000
vt 0.000 1.000
vt 0.000 0.000
vt 1.000 0.000
vt 1.000 1.000
vt 0.000 1.000
vt 0.000 0.000
vt 1.000 0.000
vt 1.000 1.000
vt 0.000 1.000
vt 0.000 0.000
vt 1.000 0.000
vt 1.000 1.000
vt 0.000 1.000
vt 0.000 0.000
vt 1.000 0.000
vt 1.000 1.000
vt 0.000 1.000
vt 0.000 0.000
vt 1.000 0.000
vt 1.000 1.000
vt 0.000 1.000
vt 0.000 0.000
vt 1.000 0.000
vt 1.000 1.000
vt 0.000 1.000
vt 0.000 0.000
vt 1.000 0.000
vt 1.000 1.000
vt 0.000 1.000
vt 0.000 0.000
vt 1.000 0.000
vt 1.000 1.000
vt 0.000 1.000
vt 0.000 0.000
vt 1.000 0.000
vt 1.000 1.000
vt 0.000 1.000
vt 0.000 0.000
vt 1.000 0.000
vt 1.000 1.000
vt 0.000 1.000
vt 0.000 0.000
vt 1.000 0.000
vt 1.000 1.000
vt 0.000 1.000
vt 0.000 0.000
vt 1.000 0.000
vt 1.000 1.000
vt 0.000 1.000
vt 0.000 0.000
vt 1.000 0.000
vt 1.000 1.000
vt 0.000 1.000
vt 0.000 0.000
vt 1.000 0.000
vt 1.000 1.000
vt 0.000 1.000
vt 0.000 0.000
vt 1.000 0.000
vt 1.000 1.000
vt 0.000 1.000
vt 0.000 0.000
vt 1.000 0.000
vt 1.000 1.000
vt 0.000 1.000
vt 0.000 0.000
vt 1.000 0.000
vt 1.000 1.000
vt 0.000 1.000
vt 0.000 0.000
vt 1.000 0.000
vt 1.000 1.000
vt 0.000 1.000
vt 0.000 0.000
vt 1.000 0.000
vt 1.000 1.000
vt 0.000 1.000
vt 0.000 0.000
vt 1.000 0.000
vt 1.000 1.000
vt 0.000 1.000
vt 0.000 0.000
vt 1.000 0.000
vt 1.000 1.000
vt 0.000 1.000
vt 0.000 0.000
vt 1.000 0.000
vt 1.000 1.000
vt 0.000 1.000
vt 0.000 0.000
vt 1.000 0.000
vt 1.000 1.000
vt 0.000 1.000
vt 0.000 0.000
vt 1.000 0.000
vt 1.000 1.000
vt 0.000 1.000
vt 0.000 0.000
vt 1.000 0.000
vt 1.000 1.000
vt 0.000 1.000
vt 0.000 0.000
vt 1.000 0.000
vt 1.000 1.000
vt 0.000 1.000
vt 0.000 0.000
vt 1.000 0.000
vt 1.000 1.000
vt 0.000 1.000
vt 0.000 0.000
vt 1.000 0.000
vt 1.000 1.000
vt 0.000 1.000
vt 0.000 0.000
vt 1.000 0.000
vt 1.000 1.000
vt 0.000 1.000
vt 0.000 0.000
vt 1.000 0.000
vt 1.000 1.000
vt 0.000 1.000
vt 0.000 0.000
vt 1.000 0.000
vt 1.000 1.000
vt 0.000 1.000
vt 0.000 0.000
vt 1.000 0.000
vt 1.000 1.000
vt 0.000 1.000
vt 0.000 0.000
vt 1.000 0.000
vt 1.000 1.000
vt 0.000 1.000
vt 0.000 0.000
vt 1.000 0.000
vt 1.000 1.000
vt 0.000 1.000
vt 0.000 0.000
vt 1.000 0.000
vt 1.000 1.000
vt 0.000 1.000
vt 0.000 0.000
vt 1.000 0.000
vt 1.000 1.000
vt 0.000 1.000
o PyriteInGround
f 1/1/1 2/2/2 3/3/3 4/4/4
f 5/5/5 6/6/6 7/7/7 8/8/8
f 9/9/9 10/10/10 11/11/11 12/12/12
f 13/13/13 14/14/14 15/15/15 16/16/16
f 17/17/17 18/18/18 19/19/19 20/20/20
f 21/21/21 22/22/22 23/23/23 24/24/24
f 25/25/25 26/26/26 27/27/27 28/28/28
f 29/29/29 30/30/30 31/31/31 32/32/32
f 33/33/33 34/34/34 35/35/35 36/36/36
f 37/37/37 38/38/38 39/39/39 40/40/40
f 41/41/41 42/42/42 43/43/43 44/44/44
f 45/45/45 46/46/46 47/47/47 48/48/48
f 49/49/49 50/50/50 51/51/51 52/52/52
f 53/53/53 54/54/54 55/55/55 56/56/56
f 57/57/57 58/58/58 59/59/59 60/60/60
f 61/61/61 62/62/62 63/63/63 64/64/64
f 65/65/65 66/66/66 67/67/67 68/68/68
f 69/69/69 70/70/70 71/71/71 72/72/72
f 73/73/73 74/74/74 75/75/75 76/76/76
f 77/77/77 78/78/78 79/79/79 80/80/80
f 81/81/81 82/82/82 83/83/83 84/84/84
f 85/85/85 86/86/86 87/87/87 88/88/88
f 89/89/89 90/90/90 91/91/91 92/92/92
f 93/93/93 94/94/94 95/95/95 96/96/96
f 97/97/97 98/98/98 99/99/99 100/100/100
f 101/101/101 102/102/102 103/103/103 104/104/104
f 105/105/105 106/106/106 107/107/107 108/108/108
f 109/109/109 110/110/110 111/111/111 112/112/112
f 113/113/113 114/114/114 115/115/115 116/116/116
f 117/117/117 118/118/118 119/119/119 120/120/120
f 121/121/121 122/122/122 123/123/123 124/124/124
f 125/125/125 126/126/126 127/127/127 128/128/128
f 129/129/129 130/130/130 131/131/131 132/132/132
f 133/133/133 134/134/134 135/135/135 136/136/136
f 137/137/137 138/138/138 139/139/139 140/140/140
f 141/141/141 142/142/142 143/143/143 144/144/144
f 145/145/145 146/146/146 147/147/147 148/148/148
f 149/149/149 150/150/150 151/151/151 152/152/152
f 153/153/153 154/154/154 155/155/155 156/156/156
f 157/157/157 158/158/158 159/159/159 160/160/160
f 161/161/161 162/162/162 163/163/163 164/164/164
f 165/165/165 166/166/166 167/167/167 168/168/168
f 169/169/169 170/170/170 171/171/171 172/172/172
f 173/173/173 174/174/174 175/175/175 176/176/176
f 177/177/177 178/178/178 179/179/179 180/180/180
f 181/181/181 182/182/182 183/183/183 184/184/184
f 185/185/185 186/186/186 187/187/187 188/188/188
f 189/189/189 190/190/190 191/191/191 192/192/192
f 193/193/193 194/194/194 195/195/195 196/196/196
f 197/197/197 198/198/198 199/199/199 200/200/200
f 201/201/201 202/202/202 203/203/203 204/204/204
f 205/205/205 206/206/206 207/207/207 208/208/208
f 209/209/209 210/210/210 211/211/211 212/212/212
f 213/213/213 214/214/214 215/215/215 216/216/216
f 217/217/217 218/218/218 219/219/219 220/220/220
f 221/221/221 222/222/222 223/223/223 224/224/224
f 225/225/225 226/226/226 227/227/227 228/228/228
f 229/229/229 230/230/230 231/231/231 232/232/232
f 233/233/233 234/234/234 235/235/235 236/236/236
f 237/237/237 238/238/238 239/239/239 240/240/240
f 241/241/241 242/242/242 243/243/243 244/244/244
f 245/245/245 246/246/246 247/247/247 248/248/248
f 249/249/249 250/250/250 251/251/251 252/252/252
f 253/253/253 254/254/254 255/255/255 256/256/256
f 257/257/257 258/258/258 259/259/259 260/260/260
f 261/261/261 262/262/262 263/263/263 264/264/264
f 265/265/265 266/266/266 267/267/267 268/268/268
f 269/269/269 270/270/270 271/271/271 272/272/272
f 273/273/273 274/274/274 275/275/275 276/276/276
f 277/277/277 278/278/278 279/279/279 280/280/280
f 281/281/281 282/282/282 283/283/283 284/284/284
f 285/285/285 286/286/286 287/287/287 288/288/288
f 289/289/289 290/290/290 291/291/291 292/292/292
f 293/293/293 294/294/294 295/295/295 296/296/296
f 297/297/297 298/298/298 299/299/299 300/300/300
f 301/301/301 302/302/302 303/303/303 304/304/304
f 305/305/305 306/306/306 307/307/307 308/308/308
f 309/309/309 310/310/310 311/311/311 312/312/312
f 313/313/313 314/314/314 315/315/315 316/316/316
f 317/317/317 318/318/318 319/319/319 320/320/320
f 321/321/321 322/322/322 323/323/323 324/324/324
f 325/325/325 326/326/326 327/327/327 328/328/328
f 329/329/329 330/330/330 331/331/331 332/332/332
f 333/333/333 334/334/334 335/335/335 336/336/336
f 337/337/337 338/338/338 339/339/339 340/340/340
f 341/341/341 342/342/342 343/343/343 344/344/344
f 345/345/345 346/346/346 347/347/347 348/348/348
f 349/349/349 350/350/350 351/351/351 352/352/352
f 353/353/353 354/354/354 355/355/355 356/356/356
f 357/357/357 358/358/358 359/359/359 360/360/360
f 361/361/361 362/362/362 363/363/363 364/364/364
f 365/365/365 366/366/366 367/367/367 368/368/368
f 369/369/369 370/370/370 371/371/371 372/372/372
f 373/373/373 374/374/374 375/375/375 376/376/376
f 377/377/377 378/378/378 379/379/379 380/380/380
f 381/381/381 382/382/382 383/383/383 384/384/384
